ISO-10303-21;
HEADER;
FILE_DESCRIPTION (( 'STEP AP214' ),
    '1' );
FILE_NAME ('Horn_Antenna_15dBi.STEP',
    '2026-08-09T05:50:53',
    ( '' ),
    ( '' ),
    'SwSTEP 2.0',
    'SolidWorks 2020',
    '' );
FILE_SCHEMA (( 'AUTOMOTIVE_DESIGN' ));
ENDSEC;

DATA;
#1 = DIRECTION ( 'NONE',  ( 0.000000000000000000, -0.000000000000000000, 1.000000000000000000 ) ) ;
#2 = ORIENTED_EDGE ( 'NONE', *, *, #17, .F. ) ;
#3 = LINE ( 'NONE', #236, #738 ) ;
#4 = CARTESIAN_POINT ( 'NONE',  ( -13.49933352948847443, 5.526506382931109407, -11.17216421795098924 ) ) ;
#5 = ADVANCED_FACE ( 'NONE', ( #457, #673 ), #599, .T. ) ;
#6 = DIRECTION ( 'NONE',  ( 0.000000000000000000, 0.000000000000000000, 1.000000000000000000 ) ) ;
#7 = ORIENTED_EDGE ( 'NONE', *, *, #635, .F. ) ;
#8 = VECTOR ( 'NONE', #1, 1000.000000000000000 ) ;
#9 = VERTEX_POINT ( 'NONE', #815 ) ;
#10 = FACE_OUTER_BOUND ( 'NONE', #225, .T. ) ;
#11 = EDGE_LOOP ( 'NONE', ( #442, #88, #141, #373 ) ) ;
#12 = ADVANCED_FACE ( 'NONE', ( #760 ), #889, .T. ) ;
#13 = AXIS2_PLACEMENT_3D ( 'NONE', #56, #742, #135 ) ;
#14 = ORIENTED_EDGE ( 'NONE', *, *, #161, .T. ) ;
#15 = VECTOR ( 'NONE', #867, 1000.000000000000000 ) ;
#16 = DIRECTION ( 'NONE',  ( -1.000000000000000000, 0.000000000000000000, -0.000000000000000000 ) ) ;
#17 = EDGE_CURVE ( 'NONE', #63, #597, #593, .T. ) ;
#18 = CARTESIAN_POINT ( 'NONE',  ( 20.39999999999999858, 0.000000000000000000, -44.79999999999999716 ) ) ;
#19 = ORIENTED_EDGE ( 'NONE', *, *, #808, .F. ) ;
#20 = FILL_AREA_STYLE ('',( #582 ) ) ;
#21 = FACE_OUTER_BOUND ( 'NONE', #666, .T. ) ;
#22 = UNCERTAINTY_MEASURE_WITH_UNIT (LENGTH_MEASURE( 1.000000000000000082E-05 ), #427, 'distance_accuracy_value', 'NONE');
#23 = PRESENTATION_LAYER_ASSIGNMENT (  '', '', ( #657 ) ) ;
#24 = LINE ( 'NONE', #612, #688 ) ;
#25 = DIRECTION ( 'NONE',  ( 0.000000000000000000, 0.000000000000000000, 1.000000000000000000 ) ) ;
#26 = VECTOR ( 'NONE', #630, 1000.000000000000000 ) ;
#27 = CARTESIAN_POINT ( 'NONE',  ( 5.839968264116452939E-16, -9.699999999999997513, -31.39999999999999858 ) ) ;
#28 = MECHANICAL_DESIGN_GEOMETRIC_PRESENTATION_REPRESENTATION (  '', ( #447 ), #566 ) ;
#29 = PRESENTATION_STYLE_ASSIGNMENT (( #480 ) ) ;
#30 = FILL_AREA_STYLE_COLOUR ( '', #456 ) ;
#31 =( GEOMETRIC_REPRESENTATION_CONTEXT ( 3 ) GLOBAL_UNCERTAINTY_ASSIGNED_CONTEXT ( ( #286 ) ) GLOBAL_UNIT_ASSIGNED_CONTEXT ( ( #334, #928, #784 ) ) REPRESENTATION_CONTEXT ( 'NONE', 'WORKASPACE' ) );
#32 = FACE_OUTER_BOUND ( 'NONE', #753, .T. ) ;
#33 = SURFACE_STYLE_FILL_AREA ( #184 ) ;
#34 = CARTESIAN_POINT ( 'NONE',  ( -14.68048651650652658, 0.000000000000000000, -9.309576815345600664 ) ) ;
#35 = CARTESIAN_POINT ( 'NONE',  ( 14.68048651650652658, 0.000000000000000000, -9.309576815345605993 ) ) ;
#36 = CARTESIAN_POINT ( 'NONE',  ( 5.839968264116452939E-16, -41.80703520543843865, -31.39999999999999858 ) ) ;
#37 = EDGE_CURVE ( 'NONE', #449, #739, #685, .T. ) ;
#38 = FILL_AREA_STYLE_COLOUR ( '', #299 ) ;
#39 = EDGE_CURVE ( 'NONE', #739, #681, #372, .T. ) ;
#40 = PRESENTATION_STYLE_ASSIGNMENT (( #45 ) ) ;
#41 = MECHANICAL_DESIGN_GEOMETRIC_PRESENTATION_REPRESENTATION (  '', ( #672 ), #377 ) ;
#42 = LINE ( 'NONE', #36, #520 ) ;
#43 = FILL_AREA_STYLE_COLOUR ( '', #717 ) ;
#44 = DIRECTION ( 'NONE',  ( 1.000000000000000000, 0.000000000000000000, 0.000000000000000000 ) ) ;
#45 = SURFACE_STYLE_USAGE ( .BOTH. , #801 ) ;
#46 = LINE ( 'NONE', #718, #817 ) ;
#47 =( NAMED_UNIT ( * ) SI_UNIT ( $, .STERADIAN. ) SOLID_ANGLE_UNIT ( ) );
#48 = MECHANICAL_DESIGN_GEOMETRIC_PRESENTATION_REPRESENTATION (  '', ( #852 ), #348 ) ;
#49 = LINE ( 'NONE', #123, #938 ) ;
#50 =( NAMED_UNIT ( * ) PLANE_ANGLE_UNIT ( ) SI_UNIT ( $, .RADIAN. ) );
#51 =( LENGTH_UNIT ( ) NAMED_UNIT ( * ) SI_UNIT ( .MILLI., .METRE. ) );
#52 =( NAMED_UNIT ( * ) PLANE_ANGLE_UNIT ( ) SI_UNIT ( $, .RADIAN. ) );
#53 = AXIS2_PLACEMENT_3D ( 'NONE', #558, #564, #420 ) ;
#54 = SURFACE_STYLE_FILL_AREA ( #876 ) ;
#55 = STYLED_ITEM ( 'NONE', ( #743 ), #846 ) ;
#56 = CARTESIAN_POINT ( 'NONE',  ( 0.000000000000000000, 8.833411784466782990, -4.174325690830341884 ) ) ;
#57 = ORIENTED_EDGE ( 'NONE', *, *, #733, .F. ) ;
#58 = FACE_OUTER_BOUND ( 'NONE', #878, .T. ) ;
#59 = VECTOR ( 'NONE', #534, 1000.000000000000000 ) ;
#60 = VERTEX_POINT ( 'NONE', #296 ) ;
#61 = ORIENTED_EDGE ( 'NONE', *, *, #323, .F. ) ;
#62 = PRESENTATION_LAYER_ASSIGNMENT (  '', '', ( #532 ) ) ;
#63 = VERTEX_POINT ( 'NONE', #824 ) ;
#64 = CIRCLE ( 'NONE', #326, 2.000000000000001776 ) ;
#65 = ORIENTED_EDGE ( 'NONE', *, *, #161, .F. ) ;
#66 = ORIENTED_EDGE ( 'NONE', *, *, #802, .F. ) ;
#67 = UNCERTAINTY_MEASURE_WITH_UNIT (LENGTH_MEASURE( 1.000000000000000082E-05 ), #368, 'distance_accuracy_value', 'NONE');
#68 = SURFACE_STYLE_FILL_AREA ( #680 ) ;
#69 = ORIENTED_EDGE ( 'NONE', *, *, #461, .F. ) ;
#70 = EDGE_CURVE ( 'NONE', #825, #505, #78, .T. ) ;
#71 = FILL_AREA_STYLE ('',( #676 ) ) ;
#72 = AXIS2_PLACEMENT_3D ( 'NONE', #646, #281, #940 ) ;
#73 = CARTESIAN_POINT ( 'NONE',  ( 19.39999999999999503, -9.699999999999997513, 6.938893903907228378E-15 ) ) ;
#74 = STYLED_ITEM ( 'NONE', ( #188 ), #899 ) ;
#75 =( NAMED_UNIT ( * ) PLANE_ANGLE_UNIT ( ) SI_UNIT ( $, .RADIAN. ) );
#76 = ORIENTED_EDGE ( 'NONE', *, *, #209, .F. ) ;
#77 = EDGE_LOOP ( 'NONE', ( #291, #300, #435, #675, #19, #76 ) ) ;
#78 = LINE ( 'NONE', #153, #644 ) ;
#79 = ORIENTED_EDGE ( 'NONE', *, *, #855, .F. ) ;
#80 = DIRECTION ( 'NONE',  ( 0.4973956177926098232, 0.3706553882589159743, -0.7843546280575772744 ) ) ;
#81 = VERTEX_POINT ( 'NONE', #645 ) ;
#82 = PRESENTATION_STYLE_ASSIGNMENT (( #302 ) ) ;
#83 = ORIENTED_EDGE ( 'NONE', *, *, #257, .T. ) ;
#84 = LINE ( 'NONE', #232, #935 ) ;
#85 = DIRECTION ( 'NONE',  ( -1.000000000000000000, 0.000000000000000000, 0.000000000000000000 ) ) ;
#86 = EDGE_CURVE ( 'NONE', #686, #379, #273, .T. ) ;
#87 = DIRECTION ( 'NONE',  ( 1.000000000000000000, 0.000000000000000000, -0.000000000000000000 ) ) ;
#88 = ORIENTED_EDGE ( 'NONE', *, *, #70, .F. ) ;
#89 = CARTESIAN_POINT ( 'NONE',  ( -60.99999999999998579, 40.70000000000001705, 65.59999999999999432 ) ) ;
#90 = LINE ( 'NONE', #164, #59 ) ;
#91 =( LENGTH_UNIT ( ) NAMED_UNIT ( * ) SI_UNIT ( .MILLI., .METRE. ) );
#92 = CARTESIAN_POINT ( 'NONE',  ( -19.39999999999999858, 10.70000000000000107, -43.79999999999999716 ) ) ;
#93 = VECTOR ( 'NONE', #840, 1000.000000000000114 ) ;
#94 = EDGE_CURVE ( 'NONE', #383, #505, #49, .T. ) ;
#95 =( LENGTH_UNIT ( ) NAMED_UNIT ( * ) SI_UNIT ( .MILLI., .METRE. ) );
#96 = VECTOR ( 'NONE', #910, 1000.000000000000000 ) ;
#97 = PLANE ( 'NONE',  #507 ) ;
#98 = FACE_BOUND ( 'NONE', #224, .T. ) ;
#99 = COLOUR_RGB ( '',0.8039215686274510109, 0.8274509803921568096, 0.8470588235294117530 ) ;
#100 = MECHANICAL_DESIGN_GEOMETRIC_PRESENTATION_REPRESENTATION (  '', ( #403 ), #900 ) ;
#101 =( NAMED_UNIT ( * ) SI_UNIT ( $, .STERADIAN. ) SOLID_ANGLE_UNIT ( ) );
#102 = EDGE_CURVE ( 'NONE', #754, #744, #361, .T. ) ;
#103 = FILL_AREA_STYLE ('',( #913 ) ) ;
#104 = CARTESIAN_POINT ( 'NONE',  ( 61.00000000000001421, -40.69999999999998863, 65.59999999999999432 ) ) ;
#105 =( GEOMETRIC_REPRESENTATION_CONTEXT ( 3 ) GLOBAL_UNCERTAINTY_ASSIGNED_CONTEXT ( ( #462 ) ) GLOBAL_UNIT_ASSIGNED_CONTEXT ( ( #492, #575, #578 ) ) REPRESENTATION_CONTEXT ( 'NONE', 'WORKASPACE' ) );
#106 = DIRECTION ( 'NONE',  ( 0.000000000000000000, -1.000000000000000000, 0.000000000000000000 ) ) ;
#107 = DIRECTION ( 'NONE',  ( 0.000000000000000000, 1.000000000000000000, 0.000000000000000000 ) ) ;
#108 = DIRECTION ( 'NONE',  ( 1.000000000000000000, 0.000000000000000000, 0.000000000000000000 ) ) ;
#109 = COLOUR_RGB ( '',0.8039215686274510109, 0.8274509803921568096, 0.8470588235294117530 ) ;
#110 = DIRECTION ( 'NONE',  ( 0.000000000000000000, -0.000000000000000000, -1.000000000000000000 ) ) ;
#111 =( LENGTH_UNIT ( ) NAMED_UNIT ( * ) SI_UNIT ( .MILLI., .METRE. ) );
#112 = SURFACE_SIDE_STYLE ('',( #641 ) ) ;
#113 = CARTESIAN_POINT ( 'NONE',  ( 20.39999999999999858, 9.700000000000001066, -0.2903440144520555433 ) ) ;
#114 =( GEOMETRIC_REPRESENTATION_CONTEXT ( 3 ) GLOBAL_UNCERTAINTY_ASSIGNED_CONTEXT ( ( #391 ) ) GLOBAL_UNIT_ASSIGNED_CONTEXT ( ( #652, #637, #929 ) ) REPRESENTATION_CONTEXT ( 'NONE', 'WORKASPACE' ) );
#115 = LINE ( 'NONE', #845, #486 ) ;
#116 = ADVANCED_FACE ( 'NONE', ( #736 ), #729, .F. ) ;
#117 = AXIS2_PLACEMENT_3D ( 'NONE', #877, #869, #563 ) ;
#118 = SURFACE_STYLE_FILL_AREA ( #424 ) ;
#119 = FACE_OUTER_BOUND ( 'NONE', #138, .T. ) ;
#120 = FILL_AREA_STYLE ('',( #790 ) ) ;
#121 = DIRECTION ( 'NONE',  ( -0.5355420253583320633, 0.000000000000000000, 0.8445085784496777492 ) ) ;
#122 = MECHANICAL_DESIGN_GEOMETRIC_PRESENTATION_REPRESENTATION (  '', ( #156 ), #317 ) ;
#123 = CARTESIAN_POINT ( 'NONE',  ( -19.39999999999999503, 0.000000000000000000, 3.469446951953614189E-15 ) ) ;
#124 = PRESENTATION_LAYER_ASSIGNMENT (  '', '', ( #74 ) ) ;
#125 = CARTESIAN_POINT ( 'NONE',  ( -20.39999999999999858, 9.700000000000001066, -0.2903440144520486044 ) ) ;
#126 = VECTOR ( 'NONE', #779, 1000.000000000000000 ) ;
#127 = CARTESIAN_POINT ( 'NONE',  ( -19.39999999999999858, -9.699999999999997513, -43.79999999999999716 ) ) ;
#128 = SURFACE_STYLE_FILL_AREA ( #344 ) ;
#129 = CARTESIAN_POINT ( 'NONE',  ( 20.39999999999999858, -10.69999999999999751, -0.2903440144520555433 ) ) ;
#130 = CARTESIAN_POINT ( 'NONE',  ( -60.99999999999998579, 40.70000000000001705, 65.59999999999999432 ) ) ;
#131 = DIRECTION ( 'NONE',  ( 1.000000000000000000, 0.000000000000000000, 0.000000000000000000 ) ) ;
#132 = ADVANCED_FACE ( 'NONE', ( #58 ), #346, .T. ) ;
#133 = FACE_OUTER_BOUND ( 'NONE', #370, .T. ) ;
#134 = PRESENTATION_LAYER_ASSIGNMENT (  '', '', ( #548 ) ) ;
#135 = DIRECTION ( 'NONE',  ( 0.000000000000000000, 0.4272567213829612243, 0.9041303523458785740 ) ) ;
#136 = FACE_OUTER_BOUND ( 'NONE', #500, .T. ) ;
#137 = MECHANICAL_DESIGN_GEOMETRIC_PRESENTATION_REPRESENTATION (  '', ( #308 ), #186 ) ;
#138 = EDGE_LOOP ( 'NONE', ( #159, #378, #813, #61, #303, #907 ) ) ;
#139 = DIRECTION ( 'NONE',  ( -0.000000000000000000, 0.000000000000000000, 1.000000000000000000 ) ) ;
#140 = CARTESIAN_POINT ( 'NONE',  ( -20.39999999999999858, -10.69999999999999751, -0.2903440144520486044 ) ) ;
#141 = ORIENTED_EDGE ( 'NONE', *, *, #945, .F. ) ;
#142 = ORIENTED_EDGE ( 'NONE', *, *, #70, .T. ) ;
#143 = UNCERTAINTY_MEASURE_WITH_UNIT (LENGTH_MEASURE( 1.000000000000000082E-05 ), #111, 'distance_accuracy_value', 'NONE');
#144 = ORIENTED_EDGE ( 'NONE', *, *, #178, .F. ) ;
#145 = EDGE_LOOP ( 'NONE', ( #810, #837, #527, #883, #504, #83 ) ) ;
#146 = EDGE_CURVE ( 'NONE', #887, #9, #638, .T. ) ;
#147 = COLOUR_RGB ( '',0.8039215686274510109, 0.8274509803921568096, 0.8470588235294117530 ) ;
#148 =( LENGTH_UNIT ( ) NAMED_UNIT ( * ) SI_UNIT ( .MILLI., .METRE. ) );
#149 = ORIENTED_EDGE ( 'NONE', *, *, #382, .T. ) ;
#150 = MECHANICAL_DESIGN_GEOMETRIC_PRESENTATION_REPRESENTATION (  '', ( #367 ), #489 ) ;
#151 = ORIENTED_EDGE ( 'NONE', *, *, #635, .T. ) ;
#152 = ORIENTED_EDGE ( 'NONE', *, *, #192, .T. ) ;
#153 = CARTESIAN_POINT ( 'NONE',  ( -19.39999999999999858, -9.699999999999997513, -43.79999999999999716 ) ) ;
#154 = ORIENTED_EDGE ( 'NONE', *, *, #515, .F. ) ;
#155 = LINE ( 'NONE', #518, #786 ) ;
#156 = STYLED_ITEM ( 'NONE', ( #179 ), #529 ) ;
#157 = EDGE_LOOP ( 'NONE', ( #14, #957 ) ) ;
#158 = DIRECTION ( 'NONE',  ( -0.000000000000000000, 0.000000000000000000, 1.000000000000000000 ) ) ;
#159 = ORIENTED_EDGE ( 'NONE', *, *, #797, .T. ) ;
#160 = CARTESIAN_POINT ( 'NONE',  ( -62.18412059453055463, 41.80603520543845519, 65.59999999999999432 ) ) ;
#161 = EDGE_CURVE ( 'NONE', #517, #600, #806, .T. ) ;
#162 = FILL_AREA_STYLE ('',( #530 ) ) ;
#163 = EDGE_LOOP ( 'NONE', ( #7, #69, #297, #821 ) ) ;
#164 = CARTESIAN_POINT ( 'NONE',  ( 61.00000000000001421, -40.69999999999998863, 65.59999999999999432 ) ) ;
#165 = UNCERTAINTY_MEASURE_WITH_UNIT (LENGTH_MEASURE( 1.000000000000000082E-05 ), #363, 'distance_accuracy_value', 'NONE');
#166 = EDGE_CURVE ( 'NONE', #893, #754, #864, .T. ) ;
#167 =( NAMED_UNIT ( * ) SI_UNIT ( $, .STERADIAN. ) SOLID_ANGLE_UNIT ( ) );
#168 = UNCERTAINTY_MEASURE_WITH_UNIT (LENGTH_MEASURE( 1.000000000000000082E-05 ), #148, 'distance_accuracy_value', 'NONE');
#169 = CARTESIAN_POINT ( 'NONE',  ( -20.39999999999999858, 10.70000000000000107, -44.79999999999999716 ) ) ;
#170 = FACE_OUTER_BOUND ( 'NONE', #592, .T. ) ;
#171 =( NAMED_UNIT ( * ) SI_UNIT ( $, .STERADIAN. ) SOLID_ANGLE_UNIT ( ) );
#172 = AXIS2_PLACEMENT_3D ( 'NONE', #484, #319, #927 ) ;
#173 =( NAMED_UNIT ( * ) SI_UNIT ( $, .STERADIAN. ) SOLID_ANGLE_UNIT ( ) );
#174 = VECTOR ( 'NONE', #542, 1000.000000000000000 ) ;
#175 = SURFACE_SIDE_STYLE ('',( #33 ) ) ;
#176 = SURFACE_SIDE_STYLE ('',( #853 ) ) ;
#177 =( NAMED_UNIT ( * ) SI_UNIT ( $, .STERADIAN. ) SOLID_ANGLE_UNIT ( ) );
#178 = EDGE_CURVE ( 'NONE', #954, #681, #794, .T. ) ;
#179 = PRESENTATION_STYLE_ASSIGNMENT (( #695 ) ) ;
#180 = AXIS2_PLACEMENT_3D ( 'NONE', #501, #139, #433 ) ;
#181 = LINE ( 'NONE', #89, #639 ) ;
#182 = DIRECTION ( 'NONE',  ( -1.000000000000000000, 0.000000000000000000, -0.000000000000000000 ) ) ;
#183 = PRESENTATION_LAYER_ASSIGNMENT (  '', '', ( #305 ) ) ;
#184 = FILL_AREA_STYLE ('',( #545 ) ) ;
#185 = EDGE_CURVE ( 'NONE', #517, #217, #42, .T. ) ;
#186 =( GEOMETRIC_REPRESENTATION_CONTEXT ( 3 ) GLOBAL_UNCERTAINTY_ASSIGNED_CONTEXT ( ( #586 ) ) GLOBAL_UNIT_ASSIGNED_CONTEXT ( ( #705, #339, #47 ) ) REPRESENTATION_CONTEXT ( 'NONE', 'WORKASPACE' ) );
#187 = CARTESIAN_POINT ( 'NONE',  ( 0.000000000000000000, -41.80603520543841967, 65.59999999999999432 ) ) ;
#188 = PRESENTATION_STYLE_ASSIGNMENT (( #788 ) ) ;
#189 = MANIFOLD_SOLID_BREP ( 'Cut-Extrude1', #253 ) ;
#190 = MECHANICAL_DESIGN_GEOMETRIC_PRESENTATION_REPRESENTATION (  '', ( #311 ), #700 ) ;
#191 = PLANE ( 'NONE',  #583 ) ;
#192 = EDGE_CURVE ( 'NONE', #600, #898, #336, .T. ) ;
#193 = DIRECTION ( 'NONE',  ( -0.000000000000000000, 1.000000000000000000, -0.000000000000000000 ) ) ;
#194 = DIRECTION ( 'NONE',  ( -0.000000000000000000, 1.000000000000000000, -0.000000000000000000 ) ) ;
#195 = PRESENTATION_STYLE_ASSIGNMENT (( #693 ) ) ;
#196 = DIRECTION ( 'NONE',  ( 0.000000000000000000, -1.000000000000000000, 0.000000000000000000 ) ) ;
#197 = SURFACE_STYLE_FILL_AREA ( #269 ) ;
#198 =( GEOMETRIC_REPRESENTATION_CONTEXT ( 3 ) GLOBAL_UNCERTAINTY_ASSIGNED_CONTEXT ( ( #669 ) ) GLOBAL_UNIT_ASSIGNED_CONTEXT ( ( #51, #264, #875 ) ) REPRESENTATION_CONTEXT ( 'NONE', 'WORKASPACE' ) );
#199 = DIRECTION ( 'NONE',  ( -0.000000000000000000, 0.000000000000000000, 1.000000000000000000 ) ) ;
#200 = STYLED_ITEM ( 'NONE', ( #40 ), #416 ) ;
#201 = SURFACE_SIDE_STYLE ('',( #418 ) ) ;
#202 = LINE ( 'NONE', #713, #15 ) ;
#203 = FILL_AREA_STYLE ('',( #43 ) ) ;
#204 = COLOUR_RGB ( '',0.8039215686274510109, 0.8274509803921568096, 0.8470588235294117530 ) ;
#205 = SURFACE_SIDE_STYLE ('',( #54 ) ) ;
#206 = FACE_BOUND ( 'NONE', #157, .T. ) ;
#207 = DIRECTION ( 'NONE',  ( 0.000000000000000000, 0.9041303523458786850, -0.4272567213829612798 ) ) ;
#208 = ORIENTED_EDGE ( 'NONE', *, *, #576, .F. ) ;
#209 = EDGE_CURVE ( 'NONE', #671, #887, #202, .T. ) ;
#210 = DIRECTION ( 'NONE',  ( -0.4973956177926098232, -0.3706553882589161963, -0.7843546280575770524 ) ) ;
#211 = PRESENTATION_STYLE_ASSIGNMENT (( #791 ) ) ;
#212 = ORIENTED_EDGE ( 'NONE', *, *, #278, .F. ) ;
#213 = DIRECTION ( 'NONE',  ( 0.4973956177926097677, -0.3706553882589162519, -0.7843546280575771634 ) ) ;
#214 = ADVANCED_FACE ( 'NONE', ( #255 ), #488, .T. ) ;
#215 = SURFACE_STYLE_USAGE ( .BOTH. , #439 ) ;
#216 = ORIENTED_EDGE ( 'NONE', *, *, #576, .T. ) ;
#217 = VERTEX_POINT ( 'NONE', #27 ) ;
#218 = UNCERTAINTY_MEASURE_WITH_UNIT (LENGTH_MEASURE( 1.000000000000000082E-05 ), #434, 'distance_accuracy_value', 'NONE');
#219 =( LENGTH_UNIT ( ) NAMED_UNIT ( * ) SI_UNIT ( .MILLI., .METRE. ) );
#220 = VERTEX_POINT ( 'NONE', #104 ) ;
#221 = SHAPE_DEFINITION_REPRESENTATION ( #834, #846 ) ;
#222 = PRESENTATION_LAYER_ASSIGNMENT (  '', '', ( #852 ) ) ;
#223 = ORIENTED_EDGE ( 'NONE', *, *, #625, .T. ) ;
#224 = EDGE_LOOP ( 'NONE', ( #309, #212 ) ) ;
#225 = EDGE_LOOP ( 'NONE', ( #301, #509, #831, #959 ) ) ;
#226 = COLOUR_RGB ( '',0.8039215686274510109, 0.8274509803921568096, 0.8470588235294117530 ) ;
#227 = FILL_AREA_STYLE_COLOUR ( '', #531 ) ;
#228 = ORIENTED_EDGE ( 'NONE', *, *, #102, .F. ) ;
#229 = MECHANICAL_DESIGN_GEOMETRIC_PRESENTATION_REPRESENTATION (  '', ( #473 ), #353 ) ;
#230 = DIRECTION ( 'NONE',  ( -0.000000000000000000, 0.000000000000000000, -1.000000000000000000 ) ) ;
#231 = VERTEX_POINT ( 'NONE', #312 ) ;
#232 = CARTESIAN_POINT ( 'NONE',  ( -0.4350898257979990413, -10.69999999999999751, -31.77347159684751432 ) ) ;
#233 =( GEOMETRIC_REPRESENTATION_CONTEXT ( 3 ) GLOBAL_UNCERTAINTY_ASSIGNED_CONTEXT ( ( #841 ) ) GLOBAL_UNIT_ASSIGNED_CONTEXT ( ( #714, #495, #720 ) ) REPRESENTATION_CONTEXT ( 'NONE', 'WORKASPACE' ) );
#234 =( NAMED_UNIT ( * ) SI_UNIT ( $, .STERADIAN. ) SOLID_ANGLE_UNIT ( ) );
#235 = ORIENTED_EDGE ( 'NONE', *, *, #185, .T. ) ;
#236 = CARTESIAN_POINT ( 'NONE',  ( 61.00000000000000000, 40.70000000000001705, 65.59999999999999432 ) ) ;
#237 = VECTOR ( 'NONE', #395, 1000.000000000000000 ) ;
#238 = DIRECTION ( 'NONE',  ( 0.000000000000000000, 0.000000000000000000, 1.000000000000000000 ) ) ;
#239 = SURFACE_STYLE_USAGE ( .BOTH. , #759 ) ;
#240 = VECTOR ( 'NONE', #799, 1000.000000000000114 ) ;
#241 = CARTESIAN_POINT ( 'NONE',  ( 0.000000000000000000, -9.699999999999997513, 0.000000000000000000 ) ) ;
#242 = FILL_AREA_STYLE ('',( #551 ) ) ;
#243 = FACE_OUTER_BOUND ( 'NONE', #77, .T. ) ;
#244 = VECTOR ( 'NONE', #25, 1000.000000000000000 ) ;
#245 = SURFACE_SIDE_STYLE ('',( #249 ) ) ;
#246 = CARTESIAN_POINT ( 'NONE',  ( -20.44182818981318306, -10.69999999999999751, -0.2243841766697146634 ) ) ;
#247 = SURFACE_SIDE_STYLE ('',( #922 ) ) ;
#248 = VECTOR ( 'NONE', #131, 1000.000000000000000 ) ;
#249 = SURFACE_STYLE_FILL_AREA ( #920 ) ;
#250 = CARTESIAN_POINT ( 'NONE',  ( -19.39999999999999858, -10.69999999999999751, -0.2243841766697146634 ) ) ;
#251 = PLANE ( 'NONE',  #525 ) ;
#252 = VECTOR ( 'NONE', #567, 1000.000000000000000 ) ;
#253 = CLOSED_SHELL ( 'NONE', ( #416, #12, #474, #214, #333, #116, #5, #726, #349, #769, #892, #411, #908, #529, #899, #132, #832, #931, #763, #406, #707 ) ) ;
#254 =( NAMED_UNIT ( * ) PLANE_ANGLE_UNIT ( ) SI_UNIT ( $, .RADIAN. ) );
#255 = FACE_OUTER_BOUND ( 'NONE', #389, .T. ) ;
#256 = FILL_AREA_STYLE ('',( #774 ) ) ;
#257 = EDGE_CURVE ( 'NONE', #954, #886, #926, .T. ) ;
#258 = CARTESIAN_POINT ( 'NONE',  ( -19.39999999999999858, 10.70000000000000107, -0.2243841766697285411 ) ) ;
#259 = VECTOR ( 'NONE', #108, 1000.000000000000000 ) ;
#260 = APPLICATION_CONTEXT ( 'automotive_design' ) ;
#261 = PRESENTATION_STYLE_ASSIGNMENT (( #712 ) ) ;
#262 = CARTESIAN_POINT ( 'NONE',  ( 19.39999999999999858, -9.699999999999997513, -43.79999999999999716 ) ) ;
#263 = FACE_OUTER_BOUND ( 'NONE', #145, .T. ) ;
#264 =( NAMED_UNIT ( * ) PLANE_ANGLE_UNIT ( ) SI_UNIT ( $, .RADIAN. ) );
#265 =( LENGTH_UNIT ( ) NAMED_UNIT ( * ) SI_UNIT ( .MILLI., .METRE. ) );
#266 = VECTOR ( 'NONE', #911, 1000.000000000000000 ) ;
#267 = FILL_AREA_STYLE_COLOUR ( '', #596 ) ;
#268 = FILL_AREA_STYLE_COLOUR ( '', #204 ) ;
#269 = FILL_AREA_STYLE ('',( #425 ) ) ;
#270 = SURFACE_STYLE_USAGE ( .BOTH. , #937 ) ;
#271 = VECTOR ( 'NONE', #429, 1000.000000000000000 ) ;
#272 = SURFACE_STYLE_FILL_AREA ( #203 ) ;
#273 = LINE ( 'NONE', #130, #723 ) ;
#274 = AXIS2_PLACEMENT_3D ( 'NONE', #613, #624, #396 ) ;
#275 = LINE ( 'NONE', #934, #665 ) ;
#276 = DIRECTION ( 'NONE',  ( -0.5355420253583323964, 0.000000000000000000, -0.8445085784496776382 ) ) ;
#277 = LINE ( 'NONE', #503, #862 ) ;
#278 = EDGE_CURVE ( 'NONE', #898, #217, #543, .T. ) ;
#279 = SURFACE_STYLE_USAGE ( .BOTH. , #205 ) ;
#280 = AXIS2_PLACEMENT_3D ( 'NONE', #737, #751, #891 ) ;
#281 = DIRECTION ( 'NONE',  ( -0.000000000000000000, 1.000000000000000000, -0.000000000000000000 ) ) ;
#282 = FILL_AREA_STYLE ('',( #731 ) ) ;
#283 = STYLED_ITEM ( 'NONE', ( #895 ), #5 ) ;
#284 = ORIENTED_EDGE ( 'NONE', *, *, #454, .F. ) ;
#285 = ORIENTED_EDGE ( 'NONE', *, *, #523, .T. ) ;
#286 = UNCERTAINTY_MEASURE_WITH_UNIT (LENGTH_MEASURE( 1.000000000000000082E-05 ), #334, 'distance_accuracy_value', 'NONE');
#287 = EDGE_CURVE ( 'NONE', #514, #667, #536, .T. ) ;
#288 = LINE ( 'NONE', #4, #728 ) ;
#289 = ORIENTED_EDGE ( 'NONE', *, *, #278, .T. ) ;
#290 = ORIENTED_EDGE ( 'NONE', *, *, #209, .T. ) ;
#291 = ORIENTED_EDGE ( 'NONE', *, *, #758, .T. ) ;
#292 = PRESENTATION_LAYER_ASSIGNMENT (  '', '', ( #55 ) ) ;
#293 = SURFACE_SIDE_STYLE ('',( #655 ) ) ;
#294 = ORIENTED_EDGE ( 'NONE', *, *, #146, .T. ) ;
#295 = ORIENTED_EDGE ( 'NONE', *, *, #696, .F. ) ;
#296 = CARTESIAN_POINT ( 'NONE',  ( -20.39999999999999858, -10.69999999999999751, -44.79999999999999716 ) ) ;
#297 = ORIENTED_EDGE ( 'NONE', *, *, #497, .F. ) ;
#298 = DIRECTION ( 'NONE',  ( 0.000000000000000000, 0.000000000000000000, 1.000000000000000000 ) ) ;
#299 = COLOUR_RGB ( '',0.8039215686274510109, 0.8274509803921568096, 0.8470588235294117530 ) ;
#300 = ORIENTED_EDGE ( 'NONE', *, *, #625, .F. ) ;
#301 = ORIENTED_EDGE ( 'NONE', *, *, #287, .T. ) ;
#302 = SURFACE_STYLE_USAGE ( .BOTH. , #452 ) ;
#303 = ORIENTED_EDGE ( 'NONE', *, *, #287, .F. ) ;
#304 = PRESENTATION_STYLE_ASSIGNMENT (( #386 ) ) ;
#305 = STYLED_ITEM ( 'NONE', ( #261 ), #769 ) ;
#306 = EDGE_LOOP ( 'NONE', ( #948, #151, #441, #228 ) ) ;
#307 = PRODUCT_DEFINITION ( 'UNKNOWN', '', #830, #909 ) ;
#308 = STYLED_ITEM ( 'NONE', ( #858 ), #189 ) ;
#309 = ORIENTED_EDGE ( 'NONE', *, *, #382, .F. ) ;
#310 = CARTESIAN_POINT ( 'NONE',  ( 20.44182818981318306, 10.70000000000000107, -0.2243841766697285411 ) ) ;
#311 = STYLED_ITEM ( 'NONE', ( #211 ), #931 ) ;
#312 = CARTESIAN_POINT ( 'NONE',  ( -20.44182818981317595, 10.70000000000000107, -0.2243841766697268203 ) ) ;
#313 = EDGE_CURVE ( 'NONE', #379, #383, #181, .T. ) ;
#314 = CARTESIAN_POINT ( 'NONE',  ( 62.18412059453059015, 0.000000000000000000, 65.59999999999999432 ) ) ;
#315 = APPLICATION_PROTOCOL_DEFINITION ( 'draft international standard', 'automotive_design', 1998, #260 ) ;
#316 = PLANE ( 'NONE',  #274 ) ;
#317 =( GEOMETRIC_REPRESENTATION_CONTEXT ( 3 ) GLOBAL_UNCERTAINTY_ASSIGNED_CONTEXT ( ( #956 ) ) GLOBAL_UNIT_ASSIGNED_CONTEXT ( ( #95, #469, #101 ) ) REPRESENTATION_CONTEXT ( 'NONE', 'WORKASPACE' ) );
#318 = PRESENTATION_STYLE_ASSIGNMENT (( #331 ) ) ;
#319 = DIRECTION ( 'NONE',  ( 0.000000000000000000, 1.000000000000000000, 0.000000000000000000 ) ) ;
#320 = PRESENTATION_LAYER_ASSIGNMENT (  '', '', ( #413 ) ) ;
#321 = LINE ( 'NONE', #241, #237 ) ;
#322 = UNCERTAINTY_MEASURE_WITH_UNIT (LENGTH_MEASURE( 1.000000000000000082E-05 ), #544, 'distance_accuracy_value', 'NONE');
#323 = EDGE_CURVE ( 'NONE', #667, #681, #392, .T. ) ;
#324 = DIRECTION ( 'NONE',  ( 0.000000000000000000, 0.000000000000000000, 1.000000000000000000 ) ) ;
#325 = CARTESIAN_POINT ( 'NONE',  ( 5.839968264116452939E-16, -9.699999999999997513, -33.39999999999999858 ) ) ;
#326 = AXIS2_PLACEMENT_3D ( 'NONE', #785, #107, #324 ) ;
#327 = VECTOR ( 'NONE', #400, 1000.000000000000000 ) ;
#328 = COLOUR_RGB ( '',0.8039215686274510109, 0.8274509803921568096, 0.8470588235294117530 ) ;
#329 = CARTESIAN_POINT ( 'NONE',  ( -19.39999999999999858, 9.700000000000001066, -43.79999999999999716 ) ) ;
#330 = PLANE ( 'NONE',  #342 ) ;
#331 = SURFACE_STYLE_USAGE ( .BOTH. , #767 ) ;
#332 = SURFACE_STYLE_FILL_AREA ( #701 ) ;
#333 = ADVANCED_FACE ( 'NONE', ( #21 ), #97, .T. ) ;
#334 =( LENGTH_UNIT ( ) NAMED_UNIT ( * ) SI_UNIT ( .MILLI., .METRE. ) );
#335 = CARTESIAN_POINT ( 'NONE',  ( -19.40000000000000924, 9.700000000000004619, 2.244298497044994178E-14 ) ) ;
#336 = LINE ( 'NONE', #552, #684 ) ;
#337 = PRODUCT_RELATED_PRODUCT_CATEGORY ( 'part', '', ( #565 ) ) ;
#338 = FACE_OUTER_BOUND ( 'NONE', #904, .T. ) ;
#339 =( NAMED_UNIT ( * ) PLANE_ANGLE_UNIT ( ) SI_UNIT ( $, .RADIAN. ) );
#340 = DIRECTION ( 'NONE',  ( -0.000000000000000000, 1.000000000000000000, -0.000000000000000000 ) ) ;
#341 = DIRECTION ( 'NONE',  ( -0.000000000000000000, -1.000000000000000000, 0.000000000000000000 ) ) ;
#342 = AXIS2_PLACEMENT_3D ( 'NONE', #34, #557, #782 ) ;
#343 = SURFACE_STYLE_USAGE ( .BOTH. , #409 ) ;
#344 = FILL_AREA_STYLE ('',( #559 ) ) ;
#345 = PRESENTATION_STYLE_ASSIGNMENT (( #571 ) ) ;
#346 = PLANE ( 'NONE',  #180 ) ;
#347 = CYLINDRICAL_SURFACE ( 'NONE', #72, 2.000000000000001776 ) ;
#348 =( GEOMETRIC_REPRESENTATION_CONTEXT ( 3 ) GLOBAL_UNCERTAINTY_ASSIGNED_CONTEXT ( ( #22 ) ) GLOBAL_UNIT_ASSIGNED_CONTEXT ( ( #427, #946, #649 ) ) REPRESENTATION_CONTEXT ( 'NONE', 'WORKASPACE' ) );
#349 = ADVANCED_FACE ( 'NONE', ( #243 ), #330, .T. ) ;
#350 = FILL_AREA_STYLE_COLOUR ( '', #602 ) ;
#351 = CARTESIAN_POINT ( 'NONE',  ( 19.40000000000000213, 0.000000000000000000, 0.000000000000000000 ) ) ;
#352 = MECHANICAL_DESIGN_GEOMETRIC_PRESENTATION_REPRESENTATION (  '', ( #683 ), #697 ) ;
#353 =( GEOMETRIC_REPRESENTATION_CONTEXT ( 3 ) GLOBAL_UNCERTAINTY_ASSIGNED_CONTEXT ( ( #443 ) ) GLOBAL_UNIT_ASSIGNED_CONTEXT ( ( #915, #773, #171 ) ) REPRESENTATION_CONTEXT ( 'NONE', 'WORKASPACE' ) );
#354 =( NAMED_UNIT ( * ) SI_UNIT ( $, .STERADIAN. ) SOLID_ANGLE_UNIT ( ) );
#355 =( NAMED_UNIT ( * ) SI_UNIT ( $, .STERADIAN. ) SOLID_ANGLE_UNIT ( ) );
#356 = COLOUR_RGB ( '',0.7921568627450980005, 0.8196078431372548767, 0.9333333333333333481 ) ;
#357 = CARTESIAN_POINT ( 'NONE',  ( -20.39999999999999858, 10.70000000000000107, -0.2903440144520486044 ) ) ;
#358 = CARTESIAN_POINT ( 'NONE',  ( -13.83597793805684795, 0.000000000000000000, -8.774034789987268823 ) ) ;
#359 = ORIENTED_EDGE ( 'NONE', *, *, #185, .F. ) ;
#360 = EDGE_CURVE ( 'NONE', #60, #761, #856, .T. ) ;
#361 = LINE ( 'NONE', #351, #252 ) ;
#362 = VECTOR ( 'NONE', #762, 1000.000000000000000 ) ;
#363 =( LENGTH_UNIT ( ) NAMED_UNIT ( * ) SI_UNIT ( .MILLI., .METRE. ) );
#364 = ORIENTED_EDGE ( 'NONE', *, *, #945, .T. ) ;
#365 = UNCERTAINTY_MEASURE_WITH_UNIT (LENGTH_MEASURE( 1.000000000000000082E-05 ), #219, 'distance_accuracy_value', 'NONE');
#366 = ORIENTED_EDGE ( 'NONE', *, *, #454, .T. ) ;
#367 = STYLED_ITEM ( 'NONE', ( #699 ), #411 ) ;
#368 =( LENGTH_UNIT ( ) NAMED_UNIT ( * ) SI_UNIT ( .MILLI., .METRE. ) );
#369 = ORIENTED_EDGE ( 'NONE', *, *, #461, .T. ) ;
#370 = EDGE_LOOP ( 'NONE', ( #57, #587, #896, #79 ) ) ;
#371 = VECTOR ( 'NONE', #106, 1000.000000000000000 ) ;
#372 = LINE ( 'NONE', #516, #8 ) ;
#373 = ORIENTED_EDGE ( 'NONE', *, *, #394, .T. ) ;
#374 =( LENGTH_UNIT ( ) NAMED_UNIT ( * ) SI_UNIT ( .MILLI., .METRE. ) );
#375 = PRESENTATION_LAYER_ASSIGNMENT (  '', '', ( #311 ) ) ;
#376 = SURFACE_STYLE_FILL_AREA ( #282 ) ;
#377 =( GEOMETRIC_REPRESENTATION_CONTEXT ( 3 ) GLOBAL_UNCERTAINTY_ASSIGNED_CONTEXT ( ( #506 ) ) GLOBAL_UNIT_ASSIGNED_CONTEXT ( ( #843, #839, #167 ) ) REPRESENTATION_CONTEXT ( 'NONE', 'WORKASPACE' ) );
#378 = ORIENTED_EDGE ( 'NONE', *, *, #257, .F. ) ;
#379 = VERTEX_POINT ( 'NONE', #475 ) ;
#380 = EDGE_LOOP ( 'NONE', ( #756, #812, #290, #294 ) ) ;
#381 = FACE_OUTER_BOUND ( 'NONE', #658, .T. ) ;
#382 = EDGE_CURVE ( 'NONE', #217, #898, #64, .T. ) ;
#383 = VERTEX_POINT ( 'NONE', #335 ) ;
#384 = CARTESIAN_POINT ( 'NONE',  ( 0.000000000000000000, 0.000000000000000000, 65.59999999999999432 ) ) ;
#385 = EDGE_LOOP ( 'NONE', ( #955, #285, #960, #584 ) ) ;
#386 = SURFACE_STYLE_USAGE ( .BOTH. , #687 ) ;
#387 = PRESENTATION_LAYER_ASSIGNMENT (  '', '', ( #473 ) ) ;
#388 = CARTESIAN_POINT ( 'NONE',  ( -19.39999999999999858, 9.700000000000001066, -43.79999999999999716 ) ) ;
#389 = EDGE_LOOP ( 'NONE', ( #735, #284, #510, #949 ) ) ;
#390 = DIRECTION ( 'NONE',  ( -1.704887937077943202E-16, 1.000000000000000000, -0.000000000000000000 ) ) ;
#391 = UNCERTAINTY_MEASURE_WITH_UNIT (LENGTH_MEASURE( 1.000000000000000082E-05 ), #652, 'distance_accuracy_value', 'NONE');
#392 = LINE ( 'NONE', #835, #126 ) ;
#393 = UNCERTAINTY_MEASURE_WITH_UNIT (LENGTH_MEASURE( 1.000000000000000082E-05 ), #906, 'distance_accuracy_value', 'NONE');
#394 = EDGE_CURVE ( 'NONE', #597, #383, #618, .T. ) ;
#395 = DIRECTION ( 'NONE',  ( 1.000000000000000000, 0.000000000000000000, 0.000000000000000000 ) ) ;
#396 = DIRECTION ( 'NONE',  ( 0.000000000000000000, 0.4272567213829609467, -0.9041303523458787961 ) ) ;
#397 = CARTESIAN_POINT ( 'NONE',  ( -20.39999999999999858, 9.700000000000001066, -43.79999999999999716 ) ) ;
#398 =( LENGTH_UNIT ( ) NAMED_UNIT ( * ) SI_UNIT ( .MILLI., .METRE. ) );
#399 = COLOUR_RGB ( '',0.8039215686274510109, 0.8274509803921568096, 0.8470588235294117530 ) ;
#400 = DIRECTION ( 'NONE',  ( -1.000000000000000000, 0.000000000000000000, 0.000000000000000000 ) ) ;
#401 =( NAMED_UNIT ( * ) SI_UNIT ( $, .STERADIAN. ) SOLID_ANGLE_UNIT ( ) );
#402 = COLOUR_RGB ( '',0.8039215686274510109, 0.8274509803921568096, 0.8470588235294117530 ) ;
#403 = STYLED_ITEM ( 'NONE', ( #952 ), #726 ) ;
#404 = PLANE ( 'NONE',  #668 ) ;
#405 = SURFACE_SIDE_STYLE ('',( #535 ) ) ;
#406 = ADVANCED_FACE ( 'NONE', ( #170 ), #316, .F. ) ;
#407 =( GEOMETRIC_REPRESENTATION_CONTEXT ( 3 ) GLOBAL_UNCERTAINTY_ASSIGNED_CONTEXT ( ( #322 ) ) GLOBAL_UNIT_ASSIGNED_CONTEXT ( ( #544, #706, #177 ) ) REPRESENTATION_CONTEXT ( 'NONE', 'WORKASPACE' ) );
#408 =( NAMED_UNIT ( * ) SI_UNIT ( $, .STERADIAN. ) SOLID_ANGLE_UNIT ( ) );
#409 = SURFACE_SIDE_STYLE ('',( #197 ) ) ;
#410 = CARTESIAN_POINT ( 'NONE',  ( 19.39999999999999858, -9.699999999999997513, -43.79999999999999716 ) ) ;
#411 = ADVANCED_FACE ( 'NONE', ( #470 ), #540, .F. ) ;
#412 = PRESENTATION_LAYER_ASSIGNMENT (  '', '', ( #838 ) ) ;
#413 = STYLED_ITEM ( 'NONE', ( #647 ), #832 ) ;
#414 = PLANE ( 'NONE',  #616 ) ;
#415 = SURFACE_SIDE_STYLE ('',( #128 ) ) ;
#416 = ADVANCED_FACE ( 'NONE', ( #338 ), #347, .F. ) ;
#417 = CARTESIAN_POINT ( 'NONE',  ( 0.000000000000000000, 0.000000000000000000, -44.79999999999999716 ) ) ;
#418 = SURFACE_STYLE_FILL_AREA ( #789 ) ;
#419 = CARTESIAN_POINT ( 'NONE',  ( 5.839968264116452939E-16, -10.69999999999999751, -33.39999999999999858 ) ) ;
#420 = DIRECTION ( 'NONE',  ( 0.000000000000000000, 0.000000000000000000, -1.000000000000000000 ) ) ;
#421 =( GEOMETRIC_REPRESENTATION_CONTEXT ( 3 ) GLOBAL_UNCERTAINTY_ASSIGNED_CONTEXT ( ( #165 ) ) GLOBAL_UNIT_ASSIGNED_CONTEXT ( ( #363, #75, #819 ) ) REPRESENTATION_CONTEXT ( 'NONE', 'WORKASPACE' ) );
#422 = EDGE_CURVE ( 'NONE', #748, #761, #568, .T. ) ;
#423 = PRESENTATION_LAYER_ASSIGNMENT (  '', '', ( #672 ) ) ;
#424 = FILL_AREA_STYLE ('',( #798 ) ) ;
#425 = FILL_AREA_STYLE_COLOUR ( '', #399 ) ;
#426 = SURFACE_STYLE_USAGE ( .BOTH. , #415 ) ;
#427 =( LENGTH_UNIT ( ) NAMED_UNIT ( * ) SI_UNIT ( .MILLI., .METRE. ) );
#428 = CARTESIAN_POINT ( 'NONE',  ( -60.99999999999998579, -40.69999999999998863, 65.59999999999999432 ) ) ;
#429 = DIRECTION ( 'NONE',  ( 1.000000000000000000, 0.000000000000000000, 0.000000000000000000 ) ) ;
#430 = DIRECTION ( 'NONE',  ( 1.000000000000000000, 0.000000000000000000, 0.000000000000000000 ) ) ;
#431 = SURFACE_STYLE_USAGE ( .BOTH. , #807 ) ;
#432 = ORIENTED_EDGE ( 'NONE', *, *, #844, .F. ) ;
#433 = DIRECTION ( 'NONE',  ( 1.000000000000000000, 0.000000000000000000, 0.000000000000000000 ) ) ;
#434 =( LENGTH_UNIT ( ) NAMED_UNIT ( * ) SI_UNIT ( .MILLI., .METRE. ) );
#435 = ORIENTED_EDGE ( 'NONE', *, *, #422, .T. ) ;
#436 = ORIENTED_EDGE ( 'NONE', *, *, #855, .T. ) ;
#437 = AXIS2_PLACEMENT_3D ( 'NONE', #329, #627, #925 ) ;
#438 =( NAMED_UNIT ( * ) SI_UNIT ( $, .STERADIAN. ) SOLID_ANGLE_UNIT ( ) );
#439 = SURFACE_SIDE_STYLE ('',( #953 ) ) ;
#440 = AXIS2_PLACEMENT_3D ( 'NONE', #866, #207, #783 ) ;
#441 = ORIENTED_EDGE ( 'NONE', *, *, #733, .T. ) ;
#442 = ORIENTED_EDGE ( 'NONE', *, *, #94, .T. ) ;
#443 = UNCERTAINTY_MEASURE_WITH_UNIT (LENGTH_MEASURE( 1.000000000000000082E-05 ), #915, 'distance_accuracy_value', 'NONE');
#444 =( NAMED_UNIT ( * ) SI_UNIT ( $, .STERADIAN. ) SOLID_ANGLE_UNIT ( ) );
#445 = ORIENTED_EDGE ( 'NONE', *, *, #39, .F. ) ;
#446 = CARTESIAN_POINT ( 'NONE',  ( 0.000000000000000000, 10.70000000000000107, -44.79999999999999716 ) ) ;
#447 = STYLED_ITEM ( 'NONE', ( #29 ), #406 ) ;
#448 = LINE ( 'NONE', #750, #648 ) ;
#449 = VERTEX_POINT ( 'NONE', #485 ) ;
#450 = ORIENTED_EDGE ( 'NONE', *, *, #664, .F. ) ;
#451 = STYLED_ITEM ( 'NONE', ( #491 ), #474 ) ;
#452 = SURFACE_SIDE_STYLE ('',( #68 ) ) ;
#453 = ORIENTED_EDGE ( 'NONE', *, *, #166, .T. ) ;
#454 = EDGE_CURVE ( 'NONE', #674, #748, #275, .T. ) ;
#455 = CARTESIAN_POINT ( 'NONE',  ( 61.00000000000000000, 40.70000000000001705, 65.59999999999999432 ) ) ;
#456 = COLOUR_RGB ( '',0.8039215686274510109, 0.8274509803921568096, 0.8470588235294117530 ) ;
#457 = FACE_BOUND ( 'NONE', #163, .T. ) ;
#458 = ORIENTED_EDGE ( 'NONE', *, *, #313, .F. ) ;
#459 = ORIENTED_EDGE ( 'NONE', *, *, #323, .T. ) ;
#460 = LINE ( 'NONE', #446, #483 ) ;
#461 = EDGE_CURVE ( 'NONE', #81, #220, #574, .T. ) ;
#462 = UNCERTAINTY_MEASURE_WITH_UNIT (LENGTH_MEASURE( 1.000000000000000082E-05 ), #492, 'distance_accuracy_value', 'NONE');
#463 =( NAMED_UNIT ( * ) SI_UNIT ( $, .STERADIAN. ) SOLID_ANGLE_UNIT ( ) );
#464 = COLOUR_RGB ( '',0.8039215686274510109, 0.8274509803921568096, 0.8470588235294117530 ) ;
#465 = CARTESIAN_POINT ( 'NONE',  ( 20.44182818981318661, -10.69999999999999751, -0.2243841766697233231 ) ) ;
#466 = SURFACE_STYLE_USAGE ( .BOTH. , #176 ) ;
#467 = PLANE ( 'NONE',  #172 ) ;
#468 =( GEOMETRIC_REPRESENTATION_CONTEXT ( 3 ) GLOBAL_UNCERTAINTY_ASSIGNED_CONTEXT ( ( #768 ) ) GLOBAL_UNIT_ASSIGNED_CONTEXT ( ( #796, #496, #355 ) ) REPRESENTATION_CONTEXT ( 'NONE', 'WORKASPACE' ) );
#469 =( NAMED_UNIT ( * ) PLANE_ANGLE_UNIT ( ) SI_UNIT ( $, .RADIAN. ) );
#470 = FACE_OUTER_BOUND ( 'NONE', #585, .T. ) ;
#471 = DIRECTION ( 'NONE',  ( 0.4973956177926097122, -0.3706553882589161963, -0.7843546280575771634 ) ) ;
#472 = DIRECTION ( 'NONE',  ( 0.000000000000000000, 0.4272567213829609467, -0.9041303523458787961 ) ) ;
#473 = STYLED_ITEM ( 'NONE', ( #476 ), #214 ) ;
#474 = ADVANCED_FACE ( 'NONE', ( #206, #263 ), #191, .T. ) ;
#475 = CARTESIAN_POINT ( 'NONE',  ( -60.99999999999998579, 40.70000000000001705, 65.59999999999999432 ) ) ;
#476 = PRESENTATION_STYLE_ASSIGNMENT (( #270 ) ) ;
#477 = MECHANICAL_DESIGN_GEOMETRIC_PRESENTATION_REPRESENTATION (  '', ( #74 ), #407 ) ;
#478 = FACE_OUTER_BOUND ( 'NONE', #598, .T. ) ;
#479 = LINE ( 'NONE', #258, #327 ) ;
#480 = SURFACE_STYLE_USAGE ( .BOTH. , #247 ) ;
#481 = CARTESIAN_POINT ( 'NONE',  ( 13.83597793805684795, 0.000000000000000000, -8.774034789987274152 ) ) ;
#482 = DIRECTION ( 'NONE',  ( -0.000000000000000000, 1.000000000000000000, -0.000000000000000000 ) ) ;
#483 = VECTOR ( 'NONE', #16, 1000.000000000000000 ) ;
#484 = CARTESIAN_POINT ( 'NONE',  ( -19.39999999999999858, 9.700000000000001066, -43.79999999999999716 ) ) ;
#485 = CARTESIAN_POINT ( 'NONE',  ( 20.39999999999999858, -10.69999999999999751, -44.79999999999999716 ) ) ;
#486 = VECTOR ( 'NONE', #182, 1000.000000000000000 ) ;
#487 = DIRECTION ( 'NONE',  ( 0.4973956177926097677, 0.3706553882589159743, -0.7843546280575771634 ) ) ;
#488 = PLANE ( 'NONE',  #730 ) ;
#489 =( GEOMETRIC_REPRESENTATION_CONTEXT ( 3 ) GLOBAL_UNCERTAINTY_ASSIGNED_CONTEXT ( ( #741 ) ) GLOBAL_UNIT_ASSIGNED_CONTEXT ( ( #91, #254, #401 ) ) REPRESENTATION_CONTEXT ( 'NONE', 'WORKASPACE' ) );
#490 = FILL_AREA_STYLE ('',( #38 ) ) ;
#491 = PRESENTATION_STYLE_ASSIGNMENT (( #725 ) ) ;
#492 =( LENGTH_UNIT ( ) NAMED_UNIT ( * ) SI_UNIT ( .MILLI., .METRE. ) );
#493 =( GEOMETRIC_REPRESENTATION_CONTEXT ( 3 ) GLOBAL_UNCERTAINTY_ASSIGNED_CONTEXT ( ( #766 ) ) GLOBAL_UNIT_ASSIGNED_CONTEXT ( ( #398, #554, #173 ) ) REPRESENTATION_CONTEXT ( 'NONE', 'WORKASPACE' ) );
#494 = CARTESIAN_POINT ( 'NONE',  ( 13.49933352948847620, -5.526506382931106742, -11.17216421795099279 ) ) ;
#495 =( NAMED_UNIT ( * ) PLANE_ANGLE_UNIT ( ) SI_UNIT ( $, .RADIAN. ) );
#496 =( NAMED_UNIT ( * ) PLANE_ANGLE_UNIT ( ) SI_UNIT ( $, .RADIAN. ) );
#497 = EDGE_CURVE ( 'NONE', #379, #81, #709, .T. ) ;
#498 =( GEOMETRIC_REPRESENTATION_CONTEXT ( 3 ) GLOBAL_UNCERTAINTY_ASSIGNED_CONTEXT ( ( #168 ) ) GLOBAL_UNIT_ASSIGNED_CONTEXT ( ( #148, #533, #444 ) ) REPRESENTATION_CONTEXT ( 'NONE', 'WORKASPACE' ) );
#499 = DIRECTION ( 'NONE',  ( 0.000000000000000000, -0.000000000000000000, -1.000000000000000000 ) ) ;
#500 = EDGE_LOOP ( 'NONE', ( #458, #745, #216, #890 ) ) ;
#501 = CARTESIAN_POINT ( 'NONE',  ( 0.000000000000000000, 0.000000000000000000, -43.79999999999999716 ) ) ;
#502 = FACE_OUTER_BOUND ( 'NONE', #306, .T. ) ;
#503 = CARTESIAN_POINT ( 'NONE',  ( 19.39999999999999858, 9.700000000000001066, -43.79999999999999716 ) ) ;
#504 = ORIENTED_EDGE ( 'NONE', *, *, #844, .T. ) ;
#505 = VERTEX_POINT ( 'NONE', #921 ) ;
#506 = UNCERTAINTY_MEASURE_WITH_UNIT (LENGTH_MEASURE( 1.000000000000000082E-05 ), #843, 'distance_accuracy_value', 'NONE');
#507 = AXIS2_PLACEMENT_3D ( 'NONE', #92, #614, #919 ) ;
#508 = PLANE ( 'NONE',  #823 ) ;
#509 = ORIENTED_EDGE ( 'NONE', *, *, #515, .T. ) ;
#510 = ORIENTED_EDGE ( 'NONE', *, *, #632, .T. ) ;
#511 = ORIENTED_EDGE ( 'NONE', *, *, #37, .F. ) ;
#512 =( NAMED_UNIT ( * ) SI_UNIT ( $, .STERADIAN. ) SOLID_ANGLE_UNIT ( ) );
#513 = ORIENTED_EDGE ( 'NONE', *, *, #912, .F. ) ;
#514 = VERTEX_POINT ( 'NONE', #636 ) ;
#515 = EDGE_CURVE ( 'NONE', #667, #231, #479, .T. ) ;
#516 = CARTESIAN_POINT ( 'NONE',  ( 20.39999999999999858, 10.70000000000000107, -43.79999999999999716 ) ) ;
#517 = VERTEX_POINT ( 'NONE', #550 ) ;
#518 = CARTESIAN_POINT ( 'NONE',  ( 19.39999999999999858, 9.700000000000001066, -43.79999999999999716 ) ) ;
#519 = AXIS2_PLACEMENT_3D ( 'NONE', #617, #917, #298 ) ;
#520 = VECTOR ( 'NONE', #482, 1000.000000000000000 ) ;
#521 = FILL_AREA_STYLE ('',( #227 ) ) ;
#522 = ORIENTED_EDGE ( 'NONE', *, *, #394, .F. ) ;
#523 = EDGE_CURVE ( 'NONE', #579, #886, #850, .T. ) ;
#524 = CYLINDRICAL_SURFACE ( 'NONE', #519, 2.000000000000001776 ) ;
#525 = AXIS2_PLACEMENT_3D ( 'NONE', #626, #777, #472 ) ;
#526 = DIRECTION ( 'NONE',  ( -0.4973956177926099897, -0.3706553882589161408, -0.7843546280575770524 ) ) ;
#527 = ORIENTED_EDGE ( 'NONE', *, *, #360, .F. ) ;
#528 = LINE ( 'NONE', #827, #93 ) ;
#529 = ADVANCED_FACE ( 'NONE', ( #930 ), #861, .F. ) ;
#530 = FILL_AREA_STYLE_COLOUR ( '', #464 ) ;
#531 = COLOUR_RGB ( '',0.8039215686274510109, 0.8274509803921568096, 0.8470588235294117530 ) ;
#532 = STYLED_ITEM ( 'NONE', ( #195 ), #892 ) ;
#533 =( NAMED_UNIT ( * ) PLANE_ANGLE_UNIT ( ) SI_UNIT ( $, .RADIAN. ) );
#534 = DIRECTION ( 'NONE',  ( -0.4973956177926100453, 0.3706553882589159188, -0.7843546280575770524 ) ) ;
#535 = SURFACE_STYLE_FILL_AREA ( #103 ) ;
#536 = LINE ( 'NONE', #776, #961 ) ;
#537 = FILL_AREA_STYLE_COLOUR ( '', #328 ) ;
#538 =( GEOMETRIC_REPRESENTATION_CONTEXT ( 3 ) GLOBAL_UNCERTAINTY_ASSIGNED_CONTEXT ( ( #884 ) ) GLOBAL_UNIT_ASSIGNED_CONTEXT ( ( #651, #50, #943 ) ) REPRESENTATION_CONTEXT ( 'NONE', 'WORKASPACE' ) );
#539 = CARTESIAN_POINT ( 'NONE',  ( 20.39999999999999858, 10.70000000000000107, -0.2903440144520555433 ) ) ;
#540 = PLANE ( 'NONE',  #117 ) ;
#541 = MECHANICAL_DESIGN_GEOMETRIC_PRESENTATION_REPRESENTATION (  '', ( #755 ), #105 ) ;
#542 = DIRECTION ( 'NONE',  ( 0.5355420253583323964, 0.000000000000000000, 0.8445085784496776382 ) ) ;
#543 = CIRCLE ( 'NONE', #848, 2.000000000000001776 ) ;
#544 =( LENGTH_UNIT ( ) NAMED_UNIT ( * ) SI_UNIT ( .MILLI., .METRE. ) );
#545 = FILL_AREA_STYLE_COLOUR ( '', #570 ) ;
#546 = FILL_AREA_STYLE ('',( #849 ) ) ;
#547 = CARTESIAN_POINT ( 'NONE',  ( -62.18412059453055463, -41.80603520543842677, 65.59999999999999432 ) ) ;
#548 = STYLED_ITEM ( 'NONE', ( #562 ), #132 ) ;
#549 = EDGE_CURVE ( 'NONE', #9, #514, #847, .T. ) ;
#550 = CARTESIAN_POINT ( 'NONE',  ( 5.839968264116452939E-16, -10.69999999999999751, -31.39999999999999858 ) ) ;
#551 = FILL_AREA_STYLE_COLOUR ( '', #870 ) ;
#552 = CARTESIAN_POINT ( 'NONE',  ( 8.289261862411159847E-16, -41.80703520543843865, -35.39999999999999858 ) ) ;
#553 = COLOUR_RGB ( '',0.8039215686274510109, 0.8274509803921568096, 0.8470588235294117530 ) ;
#554 =( NAMED_UNIT ( * ) PLANE_ANGLE_UNIT ( ) SI_UNIT ( $, .RADIAN. ) );
#555 = VECTOR ( 'NONE', #719, 1000.000000000000000 ) ;
#556 = DIRECTION ( 'NONE',  ( 1.000000000000000000, 0.000000000000000000, 0.000000000000000000 ) ) ;
#557 = DIRECTION ( 'NONE',  ( -0.8445085784496777492, 0.000000000000000000, -0.5355420253583320633 ) ) ;
#558 = CARTESIAN_POINT ( 'NONE',  ( 5.839968264116452939E-16, -10.69999999999999751, -33.39999999999999858 ) ) ;
#559 = FILL_AREA_STYLE_COLOUR ( '', #650 ) ;
#560 = MECHANICAL_DESIGN_GEOMETRIC_PRESENTATION_REPRESENTATION (  '', ( #657 ), #611 ) ;
#561 = CARTESIAN_POINT ( 'NONE',  ( -19.39999999999999858, 9.700000000000001066, -43.79999999999999716 ) ) ;
#562 = PRESENTATION_STYLE_ASSIGNMENT (( #279 ) ) ;
#563 = DIRECTION ( 'NONE',  ( -0.000000000000000000, 0.000000000000000000, -1.000000000000000000 ) ) ;
#564 = DIRECTION ( 'NONE',  ( -0.000000000000000000, 1.000000000000000000, -0.000000000000000000 ) ) ;
#565 = PRODUCT ( 'Horn_Antenna_15dBi', 'Horn_Antenna_15dBi', '', ( #590 ) ) ;
#566 =( GEOMETRIC_REPRESENTATION_CONTEXT ( 3 ) GLOBAL_UNCERTAINTY_ASSIGNED_CONTEXT ( ( #143 ) ) GLOBAL_UNIT_ASSIGNED_CONTEXT ( ( #111, #710, #463 ) ) REPRESENTATION_CONTEXT ( 'NONE', 'WORKASPACE' ) );
#567 = DIRECTION ( 'NONE',  ( 0.000000000000000000, 1.000000000000000000, 0.000000000000000000 ) ) ;
#568 = LINE ( 'NONE', #125, #622 ) ;
#569 = CARTESIAN_POINT ( 'NONE',  ( -19.39999999999999858, -9.699999999999997513, -43.79999999999999716 ) ) ;
#570 = COLOUR_RGB ( '',0.8039215686274510109, 0.8274509803921568096, 0.8470588235294117530 ) ;
#571 = SURFACE_STYLE_USAGE ( .BOTH. , #871 ) ;
#572 = EDGE_CURVE ( 'NONE', #579, #761, #84, .T. ) ;
#573 = SURFACE_SIDE_STYLE ('',( #792 ) ) ;
#574 = LINE ( 'NONE', #428, #248 ) ;
#575 =( NAMED_UNIT ( * ) PLANE_ANGLE_UNIT ( ) SI_UNIT ( $, .RADIAN. ) );
#576 = EDGE_CURVE ( 'NONE', #81, #505, #24, .T. ) ;
#577 = AXIS2_PLACEMENT_3D ( 'NONE', #836, #87, #230 ) ;
#578 =( NAMED_UNIT ( * ) SI_UNIT ( $, .STERADIAN. ) SOLID_ANGLE_UNIT ( ) );
#579 = VERTEX_POINT ( 'NONE', #246 ) ;
#580 = ORIENTED_EDGE ( 'NONE', *, *, #39, .T. ) ;
#581 = PRESENTATION_STYLE_ASSIGNMENT (( #431 ) ) ;
#582 = FILL_AREA_STYLE_COLOUR ( '', #356 ) ;
#583 = AXIS2_PLACEMENT_3D ( 'NONE', #781, #702, #110 ) ;
#584 = ORIENTED_EDGE ( 'NONE', *, *, #146, .F. ) ;
#585 = EDGE_LOOP ( 'NONE', ( #764, #450, #816, #453 ) ) ;
#586 = UNCERTAINTY_MEASURE_WITH_UNIT (LENGTH_MEASURE( 1.000000000000000082E-05 ), #705, 'distance_accuracy_value', 'NONE');
#587 = ORIENTED_EDGE ( 'NONE', *, *, #86, .T. ) ;
#588 = STYLED_ITEM ( 'NONE', ( #698 ), #349 ) ;
#589 = SURFACE_STYLE_USAGE ( .BOTH. , #293 ) ;
#590 = PRODUCT_CONTEXT ( 'NONE', #260, 'mechanical' ) ;
#591 = ORIENTED_EDGE ( 'NONE', *, *, #696, .T. ) ;
#592 = EDGE_LOOP ( 'NONE', ( #208, #369, #606, #295 ) ) ;
#593 = LINE ( 'NONE', #388, #691 ) ;
#594 = EDGE_LOOP ( 'NONE', ( #144, #432, #679, #580 ) ) ;
#595 =( NAMED_UNIT ( * ) PLANE_ANGLE_UNIT ( ) SI_UNIT ( $, .RADIAN. ) );
#596 = COLOUR_RGB ( '',0.8039215686274510109, 0.8274509803921568096, 0.8470588235294117530 ) ;
#597 = VERTEX_POINT ( 'NONE', #833 ) ;
#598 = EDGE_LOOP ( 'NONE', ( #436, #522, #2, #805 ) ) ;
#599 = PLANE ( 'NONE',  #659 ) ;
#600 = VERTEX_POINT ( 'NONE', #689 ) ;
#601 = LINE ( 'NONE', #854, #951 ) ;
#602 = COLOUR_RGB ( '',0.8039215686274510109, 0.8274509803921568096, 0.8470588235294117530 ) ;
#603 = VECTOR ( 'NONE', #933, 1000.000000000000000 ) ;
#604 = EDGE_LOOP ( 'NONE', ( #511, #513, #902, #663 ) ) ;
#605 = EDGE_CURVE ( 'NONE', #220, #754, #90, .T. ) ;
#606 = ORIENTED_EDGE ( 'NONE', *, *, #605, .T. ) ;
#607 = DIRECTION ( 'NONE',  ( 0.5355420253583320633, 0.000000000000000000, -0.8445085784496777492 ) ) ;
#608 = MECHANICAL_DESIGN_GEOMETRIC_PRESENTATION_REPRESENTATION (  '', ( #55 ), #421 ) ;
#609 = DIRECTION ( 'NONE',  ( 0.000000000000000000, 0.000000000000000000, 1.000000000000000000 ) ) ;
#610 = DIRECTION ( 'NONE',  ( 1.000000000000000000, 0.000000000000000000, 0.000000000000000000 ) ) ;
#611 =( GEOMETRIC_REPRESENTATION_CONTEXT ( 3 ) GLOBAL_UNCERTAINTY_ASSIGNED_CONTEXT ( ( #814 ) ) GLOBAL_UNIT_ASSIGNED_CONTEXT ( ( #374, #595, #765 ) ) REPRESENTATION_CONTEXT ( 'NONE', 'WORKASPACE' ) );
#612 = CARTESIAN_POINT ( 'NONE',  ( -60.99999999999998579, -40.69999999999998863, 65.59999999999999432 ) ) ;
#613 = CARTESIAN_POINT ( 'NONE',  ( 0.000000000000000000, -7.929281432120901307, -3.747068969447376663 ) ) ;
#614 = DIRECTION ( 'NONE',  ( 0.000000000000000000, 1.000000000000000000, 0.000000000000000000 ) ) ;
#615 = FACE_OUTER_BOUND ( 'NONE', #385, .T. ) ;
#616 = AXIS2_PLACEMENT_3D ( 'NONE', #35, #787, #863 ) ;
#617 = CARTESIAN_POINT ( 'NONE',  ( 5.839968264116452939E-16, -41.80703520543843865, -33.39999999999999858 ) ) ;
#618 = LINE ( 'NONE', #851, #244 ) ;
#619 = PRESENTATION_LAYER_ASSIGNMENT (  '', '', ( #447 ) ) ;
#620 = SURFACE_STYLE_FILL_AREA ( #162 ) ;
#621 = CARTESIAN_POINT ( 'NONE',  ( 0.000000000000000000, 41.80603520543846230, 65.59999999999999432 ) ) ;
#622 = VECTOR ( 'NONE', #196, 1000.000000000000000 ) ;
#623 = CARTESIAN_POINT ( 'NONE',  ( -60.99999999999998579, 40.70000000000001705, 65.59999999999999432 ) ) ;
#624 = DIRECTION ( 'NONE',  ( 0.000000000000000000, -0.9041303523458787961, -0.4272567213829609467 ) ) ;
#625 = EDGE_CURVE ( 'NONE', #748, #231, #528, .T. ) ;
#626 = CARTESIAN_POINT ( 'NONE',  ( 0.000000000000000000, -8.833411784466781214, -4.174325690830337443 ) ) ;
#627 = DIRECTION ( 'NONE',  ( -1.000000000000000000, 0.000000000000000000, 0.000000000000000000 ) ) ;
#628 = DIRECTION ( 'NONE',  ( 0.000000000000000000, 0.000000000000000000, 1.000000000000000000 ) ) ;
#629 = DIRECTION ( 'NONE',  ( 0.000000000000000000, 1.000000000000000000, 0.000000000000000000 ) ) ;
#630 = DIRECTION ( 'NONE',  ( -1.000000000000000000, 0.000000000000000000, 0.000000000000000000 ) ) ;
#631 = COLOUR_RGB ( '',0.8039215686274510109, 0.8274509803921568096, 0.8470588235294117530 ) ;
#632 = EDGE_CURVE ( 'NONE', #674, #60, #771, .T. ) ;
#633 = LINE ( 'NONE', #494, #240 ) ;
#634 = DIRECTION ( 'NONE',  ( 0.000000000000000000, 0.000000000000000000, 1.000000000000000000 ) ) ;
#635 = EDGE_CURVE ( 'NONE', #220, #686, #3, .T. ) ;
#636 = CARTESIAN_POINT ( 'NONE',  ( 62.18412059453058305, 41.80603520543845519, 65.59999999999999432 ) ) ;
#637 =( NAMED_UNIT ( * ) PLANE_ANGLE_UNIT ( ) SI_UNIT ( $, .RADIAN. ) );
#638 = LINE ( 'NONE', #187, #259 ) ;
#639 = VECTOR ( 'NONE', #471, 1000.000000000000227 ) ;
#640 = SURFACE_STYLE_USAGE ( .BOTH. , #573 ) ;
#641 = SURFACE_STYLE_FILL_AREA ( #727 ) ;
#642 = SURFACE_STYLE_FILL_AREA ( #120 ) ;
#643 = DIRECTION ( 'NONE',  ( 0.000000000000000000, -1.000000000000000000, 0.000000000000000000 ) ) ;
#644 = VECTOR ( 'NONE', #6, 1000.000000000000000 ) ;
#645 = CARTESIAN_POINT ( 'NONE',  ( -60.99999999999998579, -40.69999999999998863, 65.59999999999999432 ) ) ;
#646 = CARTESIAN_POINT ( 'NONE',  ( 5.839968264116452939E-16, -41.80703520543843865, -33.39999999999999858 ) ) ;
#647 = PRESENTATION_STYLE_ASSIGNMENT (( #343 ) ) ;
#648 = VECTOR ( 'NONE', #210, 1000.000000000000114 ) ;
#649 =( NAMED_UNIT ( * ) SI_UNIT ( $, .STERADIAN. ) SOLID_ANGLE_UNIT ( ) );
#650 = COLOUR_RGB ( '',0.7921568627450980005, 0.8196078431372548767, 0.9333333333333333481 ) ;
#651 =( LENGTH_UNIT ( ) NAMED_UNIT ( * ) SI_UNIT ( .MILLI., .METRE. ) );
#652 =( LENGTH_UNIT ( ) NAMED_UNIT ( * ) SI_UNIT ( .MILLI., .METRE. ) );
#653 = EDGE_CURVE ( 'NONE', #739, #674, #460, .T. ) ;
#654 = AXIS2_PLACEMENT_3D ( 'NONE', #358, #795, #121 ) ;
#655 = SURFACE_STYLE_FILL_AREA ( #865 ) ;
#656 = LINE ( 'NONE', #561, #905 ) ;
#657 = STYLED_ITEM ( 'NONE', ( #304 ), #707 ) ;
#658 = EDGE_LOOP ( 'NONE', ( #829, #65, #235, #149 ) ) ;
#659 = AXIS2_PLACEMENT_3D ( 'NONE', #384, #158, #610 ) ;
#660 = CIRCLE ( 'NONE', #914, 2.000000000000001776 ) ;
#661 = APPLICATION_PROTOCOL_DEFINITION ( 'draft international standard', 'automotive_design', 1998, #711 ) ;
#662 = ORIENTED_EDGE ( 'NONE', *, *, #166, .F. ) ;
#663 = ORIENTED_EDGE ( 'NONE', *, *, #653, .F. ) ;
#664 = EDGE_CURVE ( 'NONE', #63, #744, #155, .T. ) ;
#665 = VECTOR ( 'NONE', #873, 1000.000000000000000 ) ;
#666 = EDGE_LOOP ( 'NONE', ( #154, #459, #445, #811, #366, #223 ) ) ;
#667 = VERTEX_POINT ( 'NONE', #310 ) ;
#668 = AXIS2_PLACEMENT_3D ( 'NONE', #800, #643, #499 ) ;
#669 = UNCERTAINTY_MEASURE_WITH_UNIT (LENGTH_MEASURE( 1.000000000000000082E-05 ), #51, 'distance_accuracy_value', 'NONE');
#670 = FILL_AREA_STYLE_COLOUR ( '', #631 ) ;
#671 = VERTEX_POINT ( 'NONE', #160 ) ;
#672 = STYLED_ITEM ( 'NONE', ( #318 ), #333 ) ;
#673 = FACE_OUTER_BOUND ( 'NONE', #380, .T. ) ;
#674 = VERTEX_POINT ( 'NONE', #169 ) ;
#675 = ORIENTED_EDGE ( 'NONE', *, *, #572, .F. ) ;
#676 = FILL_AREA_STYLE_COLOUR ( '', #109 ) ;
#677 = MECHANICAL_DESIGN_GEOMETRIC_PRESENTATION_REPRESENTATION (  '', ( #548 ), #468 ) ;
#678 = PRESENTATION_LAYER_ASSIGNMENT (  '', '', ( #283 ) ) ;
#679 = ORIENTED_EDGE ( 'NONE', *, *, #37, .T. ) ;
#680 = FILL_AREA_STYLE ('',( #670 ) ) ;
#681 = VERTEX_POINT ( 'NONE', #539 ) ;
#682 = CARTESIAN_POINT ( 'NONE',  ( -20.39999999999999858, 0.000000000000000000, -44.79999999999999716 ) ) ;
#683 = STYLED_ITEM ( 'NONE', ( #581 ), #763 ) ;
#684 = VECTOR ( 'NONE', #194, 1000.000000000000000 ) ;
#685 = LINE ( 'NONE', #18, #96 ) ;
#686 = VERTEX_POINT ( 'NONE', #455 ) ;
#687 = SURFACE_SIDE_STYLE ('',( #749 ) ) ;
#688 = VECTOR ( 'NONE', #80, 1000.000000000000227 ) ;
#689 = CARTESIAN_POINT ( 'NONE',  ( 8.289261862411157874E-16, -10.69999999999999751, -35.39999999999999858 ) ) ;
#690 = UNCERTAINTY_MEASURE_WITH_UNIT (LENGTH_MEASURE( 1.000000000000000082E-05 ), #265, 'distance_accuracy_value', 'NONE');
#691 = VECTOR ( 'NONE', #747, 1000.000000000000000 ) ;
#692 = CARTESIAN_POINT ( 'NONE',  ( -10.69295429808830100, -10.69999999999999751, -49.32154117682205197 ) ) ;
#693 = SURFACE_STYLE_USAGE ( .BOTH. , #924 ) ;
#694 = MECHANICAL_DESIGN_GEOMETRIC_PRESENTATION_REPRESENTATION (  '', ( #532 ), #493 ) ;
#695 = SURFACE_STYLE_USAGE ( .BOTH. , #175 ) ;
#696 = EDGE_CURVE ( 'NONE', #505, #754, #321, .T. ) ;
#697 =( GEOMETRIC_REPRESENTATION_CONTEXT ( 3 ) GLOBAL_UNCERTAINTY_ASSIGNED_CONTEXT ( ( #218 ) ) GLOBAL_UNIT_ASSIGNED_CONTEXT ( ( #434, #803, #438 ) ) REPRESENTATION_CONTEXT ( 'NONE', 'WORKASPACE' ) );
#698 = PRESENTATION_STYLE_ASSIGNMENT (( #466 ) ) ;
#699 = PRESENTATION_STYLE_ASSIGNMENT (( #842 ) ) ;
#700 =( GEOMETRIC_REPRESENTATION_CONTEXT ( 3 ) GLOBAL_UNCERTAINTY_ASSIGNED_CONTEXT ( ( #690 ) ) GLOBAL_UNIT_ASSIGNED_CONTEXT ( ( #265, #52, #354 ) ) REPRESENTATION_CONTEXT ( 'NONE', 'WORKASPACE' ) );
#701 = FILL_AREA_STYLE ('',( #30 ) ) ;
#702 = DIRECTION ( 'NONE',  ( 0.000000000000000000, -1.000000000000000000, 0.000000000000000000 ) ) ;
#703 =( NAMED_UNIT ( * ) PLANE_ANGLE_UNIT ( ) SI_UNIT ( $, .RADIAN. ) );
#704 = DIRECTION ( 'NONE',  ( 0.000000000000000000, 0.000000000000000000, -1.000000000000000000 ) ) ;
#705 =( LENGTH_UNIT ( ) NAMED_UNIT ( * ) SI_UNIT ( .MILLI., .METRE. ) );
#706 =( NAMED_UNIT ( * ) PLANE_ANGLE_UNIT ( ) SI_UNIT ( $, .RADIAN. ) );
#707 = ADVANCED_FACE ( 'NONE', ( #381 ), #524, .F. ) ;
#708 = MECHANICAL_DESIGN_GEOMETRIC_PRESENTATION_REPRESENTATION (  '', ( #283 ), #498 ) ;
#709 = LINE ( 'NONE', #623, #371 ) ;
#710 =( NAMED_UNIT ( * ) PLANE_ANGLE_UNIT ( ) SI_UNIT ( $, .RADIAN. ) );
#711 = APPLICATION_CONTEXT ( 'automotive_design' ) ;
#712 = SURFACE_STYLE_USAGE ( .BOTH. , #112 ) ;
#713 = CARTESIAN_POINT ( 'NONE',  ( -62.18412059453055463, 0.000000000000000000, 65.59999999999999432 ) ) ;
#714 =( LENGTH_UNIT ( ) NAMED_UNIT ( * ) SI_UNIT ( .MILLI., .METRE. ) );
#715 = PRESENTATION_STYLE_ASSIGNMENT (( #640 ) ) ;
#716 = PRESENTATION_LAYER_ASSIGNMENT (  '', '', ( #451 ) ) ;
#717 = COLOUR_RGB ( '',0.8039215686274510109, 0.8274509803921568096, 0.8470588235294117530 ) ;
#718 = CARTESIAN_POINT ( 'NONE',  ( -13.49933352948847620, -5.526506382931108519, -11.17216421795098924 ) ) ;
#719 = DIRECTION ( 'NONE',  ( 0.000000000000000000, 0.000000000000000000, 1.000000000000000000 ) ) ;
#720 =( NAMED_UNIT ( * ) SI_UNIT ( $, .STERADIAN. ) SOLID_ANGLE_UNIT ( ) );
#721 = PRESENTATION_LAYER_ASSIGNMENT (  '', '', ( #588 ) ) ;
#722 = PLANE ( 'NONE',  #440 ) ;
#723 = VECTOR ( 'NONE', #724, 1000.000000000000000 ) ;
#724 = DIRECTION ( 'NONE',  ( -1.000000000000000000, -0.000000000000000000, -0.000000000000000000 ) ) ;
#725 = SURFACE_STYLE_USAGE ( .BOTH. , #201 ) ;
#726 = ADVANCED_FACE ( 'NONE', ( #10 ), #818, .T. ) ;
#727 = FILL_AREA_STYLE ('',( #350 ) ) ;
#728 = VECTOR ( 'NONE', #213, 1000.000000000000114 ) ;
#729 = PLANE ( 'NONE',  #894 ) ;
#730 = AXIS2_PLACEMENT_3D ( 'NONE', #397, #85, #609 ) ;
#731 = FILL_AREA_STYLE_COLOUR ( '', #226 ) ;
#732 = SURFACE_SIDE_STYLE ('',( #272 ) ) ;
#733 = EDGE_CURVE ( 'NONE', #686, #744, #448, .T. ) ;
#734 = PRESENTATION_LAYER_ASSIGNMENT (  '', '', ( #755 ) ) ;
#735 = ORIENTED_EDGE ( 'NONE', *, *, #422, .F. ) ;
#736 = FACE_OUTER_BOUND ( 'NONE', #604, .T. ) ;
#737 = CARTESIAN_POINT ( 'NONE',  ( 0.000000000000000000, 0.000000000000000000, 0.000000000000000000 ) ) ;
#738 = VECTOR ( 'NONE', #390, 1000.000000000000000 ) ;
#739 = VERTEX_POINT ( 'NONE', #885 ) ;
#740 = ORIENTED_EDGE ( 'NONE', *, *, #936, .T. ) ;
#741 = UNCERTAINTY_MEASURE_WITH_UNIT (LENGTH_MEASURE( 1.000000000000000082E-05 ), #91, 'distance_accuracy_value', 'NONE');
#742 = DIRECTION ( 'NONE',  ( 0.000000000000000000, 0.9041303523458786850, -0.4272567213829612798 ) ) ;
#743 = PRESENTATION_STYLE_ASSIGNMENT (( #215 ) ) ;
#744 = VERTEX_POINT ( 'NONE', #947 ) ;
#745 = ORIENTED_EDGE ( 'NONE', *, *, #497, .T. ) ;
#746 = MECHANICAL_DESIGN_GEOMETRIC_PRESENTATION_REPRESENTATION (  '', ( #200 ), #538 ) ;
#747 = DIRECTION ( 'NONE',  ( -1.000000000000000000, -0.000000000000000000, -0.000000000000000000 ) ) ;
#748 = VERTEX_POINT ( 'NONE', #357 ) ;
#749 = SURFACE_STYLE_FILL_AREA ( #71 ) ;
#750 = CARTESIAN_POINT ( 'NONE',  ( 61.00000000000000000, 40.70000000000001705, 65.59999999999999432 ) ) ;
#751 = DIRECTION ( 'NONE',  ( 0.000000000000000000, 0.000000000000000000, 1.000000000000000000 ) ) ;
#752 = MECHANICAL_DESIGN_GEOMETRIC_PRESENTATION_REPRESENTATION (  '', ( #451 ), #31 ) ;
#753 = EDGE_LOOP ( 'NONE', ( #591, #662, #66, #142 ) ) ;
#754 = VERTEX_POINT ( 'NONE', #73 ) ;
#755 = STYLED_ITEM ( 'NONE', ( #345 ), #908 ) ;
#756 = ORIENTED_EDGE ( 'NONE', *, *, #549, .T. ) ;
#757 = DIRECTION ( 'NONE',  ( 0.000000000000000000, 0.000000000000000000, 1.000000000000000000 ) ) ;
#758 = EDGE_CURVE ( 'NONE', #671, #231, #288, .T. ) ;
#759 = SURFACE_SIDE_STYLE ('',( #828 ) ) ;
#760 = FACE_OUTER_BOUND ( 'NONE', #594, .T. ) ;
#761 = VERTEX_POINT ( 'NONE', #140 ) ;
#762 = DIRECTION ( 'NONE',  ( 0.000000000000000000, 1.000000000000000000, 0.000000000000000000 ) ) ;
#763 = ADVANCED_FACE ( 'NONE', ( #502 ), #508, .F. ) ;
#764 = ORIENTED_EDGE ( 'NONE', *, *, #102, .T. ) ;
#765 =( NAMED_UNIT ( * ) SI_UNIT ( $, .STERADIAN. ) SOLID_ANGLE_UNIT ( ) );
#766 = UNCERTAINTY_MEASURE_WITH_UNIT (LENGTH_MEASURE( 1.000000000000000082E-05 ), #398, 'distance_accuracy_value', 'NONE');
#767 = SURFACE_SIDE_STYLE ('',( #620 ) ) ;
#768 = UNCERTAINTY_MEASURE_WITH_UNIT (LENGTH_MEASURE( 1.000000000000000082E-05 ), #796, 'distance_accuracy_value', 'NONE');
#769 = ADVANCED_FACE ( 'NONE', ( #119 ), #414, .T. ) ;
#770 = VECTOR ( 'NONE', #430, 1000.000000000000000 ) ;
#771 = LINE ( 'NONE', #682, #266 ) ;
#772 =( GEOMETRIC_REPRESENTATION_CONTEXT ( 3 ) GLOBAL_UNCERTAINTY_ASSIGNED_CONTEXT ( ( #365 ) ) GLOBAL_UNIT_ASSIGNED_CONTEXT ( ( #219, #703, #408 ) ) REPRESENTATION_CONTEXT ( 'NONE', 'WORKASPACE' ) );
#773 =( NAMED_UNIT ( * ) PLANE_ANGLE_UNIT ( ) SI_UNIT ( $, .RADIAN. ) );
#774 = FILL_AREA_STYLE_COLOUR ( '', #147 ) ;
#775 = EDGE_CURVE ( 'NONE', #600, #517, #660, .T. ) ;
#776 = CARTESIAN_POINT ( 'NONE',  ( 13.49933352948847265, 5.526506382931106742, -11.17216421795099279 ) ) ;
#777 = DIRECTION ( 'NONE',  ( 0.000000000000000000, -0.9041303523458787961, -0.4272567213829609467 ) ) ;
#778 = PRESENTATION_LAYER_ASSIGNMENT (  '', '', ( #683 ) ) ;
#779 = DIRECTION ( 'NONE',  ( -0.5355420253583323964, 0.000000000000000000, -0.8445085784496776382 ) ) ;
#780 = LINE ( 'NONE', #621, #26 ) ;
#781 = CARTESIAN_POINT ( 'NONE',  ( -19.39999999999999858, -10.69999999999999751, -43.79999999999999716 ) ) ;
#782 = DIRECTION ( 'NONE',  ( -0.5355420253583320633, 0.000000000000000000, 0.8445085784496777492 ) ) ;
#783 = DIRECTION ( 'NONE',  ( 0.000000000000000000, 0.4272567213829612243, 0.9041303523458785740 ) ) ;
#784 =( NAMED_UNIT ( * ) SI_UNIT ( $, .STERADIAN. ) SOLID_ANGLE_UNIT ( ) );
#785 = CARTESIAN_POINT ( 'NONE',  ( 5.839968264116452939E-16, -9.699999999999997513, -33.39999999999999858 ) ) ;
#786 = VECTOR ( 'NONE', #757, 1000.000000000000000 ) ;
#787 = DIRECTION ( 'NONE',  ( 0.8445085784496776382, 0.000000000000000000, -0.5355420253583323964 ) ) ;
#788 = SURFACE_STYLE_USAGE ( .BOTH. , #245 ) ;
#789 = FILL_AREA_STYLE ('',( #268 ) ) ;
#790 = FILL_AREA_STYLE_COLOUR ( '', #826 ) ;
#791 = SURFACE_STYLE_USAGE ( .BOTH. , #732 ) ;
#792 = SURFACE_STYLE_FILL_AREA ( #490 ) ;
#793 = LINE ( 'NONE', #569, #271 ) ;
#794 = LINE ( 'NONE', #113, #603 ) ;
#795 = DIRECTION ( 'NONE',  ( -0.8445085784496777492, 0.000000000000000000, -0.5355420253583320633 ) ) ;
#796 =( LENGTH_UNIT ( ) NAMED_UNIT ( * ) SI_UNIT ( .MILLI., .METRE. ) );
#797 = EDGE_CURVE ( 'NONE', #9, #886, #633, .T. ) ;
#798 = FILL_AREA_STYLE_COLOUR ( '', #99 ) ;
#799 = DIRECTION ( 'NONE',  ( -0.4973956177926100453, 0.3706553882589159188, -0.7843546280575771634 ) ) ;
#800 = CARTESIAN_POINT ( 'NONE',  ( -19.39999999999999858, -9.699999999999997513, -43.79999999999999716 ) ) ;
#801 = SURFACE_SIDE_STYLE ('',( #118 ) ) ;
#802 = EDGE_CURVE ( 'NONE', #825, #893, #793, .T. ) ;
#803 =( NAMED_UNIT ( * ) PLANE_ANGLE_UNIT ( ) SI_UNIT ( $, .RADIAN. ) );
#804 = PLANE ( 'NONE',  #654 ) ;
#805 = ORIENTED_EDGE ( 'NONE', *, *, #664, .T. ) ;
#806 = CIRCLE ( 'NONE', #53, 2.000000000000001776 ) ;
#807 = SURFACE_SIDE_STYLE ('',( #376 ) ) ;
#808 = EDGE_CURVE ( 'NONE', #887, #579, #46, .T. ) ;
#809 = DIRECTION ( 'NONE',  ( 0.000000000000000000, -1.000000000000000000, 0.000000000000000000 ) ) ;
#810 = ORIENTED_EDGE ( 'NONE', *, *, #523, .F. ) ;
#811 = ORIENTED_EDGE ( 'NONE', *, *, #653, .T. ) ;
#812 = ORIENTED_EDGE ( 'NONE', *, *, #872, .T. ) ;
#813 = ORIENTED_EDGE ( 'NONE', *, *, #178, .T. ) ;
#814 = UNCERTAINTY_MEASURE_WITH_UNIT (LENGTH_MEASURE( 1.000000000000000082E-05 ), #374, 'distance_accuracy_value', 'NONE');
#815 = CARTESIAN_POINT ( 'NONE',  ( 62.18412059453058305, -41.80603520543842677, 65.59999999999999432 ) ) ;
#816 = ORIENTED_EDGE ( 'NONE', *, *, #936, .F. ) ;
#817 = VECTOR ( 'NONE', #487, 1000.000000000000227 ) ;
#818 = PLANE ( 'NONE',  #13 ) ;
#819 =( NAMED_UNIT ( * ) SI_UNIT ( $, .STERADIAN. ) SOLID_ANGLE_UNIT ( ) );
#820 = ORIENTED_EDGE ( 'NONE', *, *, #17, .T. ) ;
#821 = ORIENTED_EDGE ( 'NONE', *, *, #86, .F. ) ;
#822 = PRESENTATION_LAYER_ASSIGNMENT (  '', '', ( #200 ) ) ;
#823 = AXIS2_PLACEMENT_3D ( 'NONE', #481, #944, #276 ) ;
#824 = CARTESIAN_POINT ( 'NONE',  ( 19.39999999999999858, 9.700000000000001066, -43.79999999999999716 ) ) ;
#825 = VERTEX_POINT ( 'NONE', #127 ) ;
#826 = COLOUR_RGB ( '',0.8039215686274510109, 0.8274509803921568096, 0.8470588235294117530 ) ;
#827 = CARTESIAN_POINT ( 'NONE',  ( -0.4350898257979990413, 10.70000000000000107, -31.77347159684751432 ) ) ;
#828 = SURFACE_STYLE_FILL_AREA ( #521 ) ;
#829 = ORIENTED_EDGE ( 'NONE', *, *, #192, .F. ) ;
#830 = PRODUCT_DEFINITION_FORMATION_WITH_SPECIFIED_SOURCE ( 'ANY', '', #565, .NOT_KNOWN. ) ;
#831 = ORIENTED_EDGE ( 'NONE', *, *, #758, .F. ) ;
#832 = ADVANCED_FACE ( 'NONE', ( #133 ), #722, .F. ) ;
#833 = CARTESIAN_POINT ( 'NONE',  ( -19.39999999999999858, 9.700000000000001066, -43.79999999999999716 ) ) ;
#834 = PRODUCT_DEFINITION_SHAPE ( 'NONE', 'NONE',  #307 ) ;
#835 = CARTESIAN_POINT ( 'NONE',  ( -10.69295429808830100, 10.70000000000000107, -49.32154117682205197 ) ) ;
#836 = CARTESIAN_POINT ( 'NONE',  ( 20.39999999999999858, 9.700000000000001066, -43.79999999999999716 ) ) ;
#837 = ORIENTED_EDGE ( 'NONE', *, *, #572, .T. ) ;
#838 = STYLED_ITEM ( 'NONE', ( #82 ), #12 ) ;
#839 =( NAMED_UNIT ( * ) PLANE_ANGLE_UNIT ( ) SI_UNIT ( $, .RADIAN. ) );
#840 = DIRECTION ( 'NONE',  ( -0.5355420253583320633, 0.000000000000000000, 0.8445085784496777492 ) ) ;
#841 = UNCERTAINTY_MEASURE_WITH_UNIT (LENGTH_MEASURE( 1.000000000000000082E-05 ), #714, 'distance_accuracy_value', 'NONE');
#842 = SURFACE_STYLE_USAGE ( .BOTH. , #405 ) ;
#843 =( LENGTH_UNIT ( ) NAMED_UNIT ( * ) SI_UNIT ( .MILLI., .METRE. ) );
#844 = EDGE_CURVE ( 'NONE', #449, #954, #601, .T. ) ;
#845 = CARTESIAN_POINT ( 'NONE',  ( 0.000000000000000000, 9.700000000000002842, -4.336808689942017736E-16 ) ) ;
#846 = ADVANCED_BREP_SHAPE_REPRESENTATION ( 'Horn_Antenna_15dBi', ( #189, #280 ), #233 ) ;
#847 = LINE ( 'NONE', #314, #362 ) ;
#848 = AXIS2_PLACEMENT_3D ( 'NONE', #325, #629, #238 ) ;
#849 = FILL_AREA_STYLE_COLOUR ( '', #923 ) ;
#850 = LINE ( 'NONE', #250, #874 ) ;
#851 = CARTESIAN_POINT ( 'NONE',  ( -19.39999999999999858, 9.700000000000001066, -43.79999999999999716 ) ) ;
#852 = STYLED_ITEM ( 'NONE', ( #715 ), #116 ) ;
#853 = SURFACE_STYLE_FILL_AREA ( #546 ) ;
#854 = CARTESIAN_POINT ( 'NONE',  ( 20.39999999999999858, -10.69999999999999751, -43.79999999999999716 ) ) ;
#855 = EDGE_CURVE ( 'NONE', #744, #383, #115, .T. ) ;
#856 = LINE ( 'NONE', #918, #888 ) ;
#857 = MECHANICAL_DESIGN_GEOMETRIC_PRESENTATION_REPRESENTATION (  '', ( #305 ), #198 ) ;
#858 = PRESENTATION_STYLE_ASSIGNMENT (( #426 ) ) ;
#859 = PRESENTATION_LAYER_ASSIGNMENT (  '', '', ( #308 ) ) ;
#860 = CARTESIAN_POINT ( 'NONE',  ( 8.289261862411157874E-16, -9.699999999999997513, -35.39999999999999858 ) ) ;
#861 = PLANE ( 'NONE',  #437 ) ;
#862 = VECTOR ( 'NONE', #340, 1000.000000000000000 ) ;
#863 = DIRECTION ( 'NONE',  ( -0.5355420253583323964, 0.000000000000000000, -0.8445085784496776382 ) ) ;
#864 = LINE ( 'NONE', #410, #555 ) ;
#865 = FILL_AREA_STYLE ('',( #903 ) ) ;
#866 = CARTESIAN_POINT ( 'NONE',  ( 0.000000000000000000, 7.929281432120903084, -3.747068969447380660 ) ) ;
#867 = DIRECTION ( 'NONE',  ( 0.000000000000000000, -1.000000000000000000, 0.000000000000000000 ) ) ;
#868 = MECHANICAL_DESIGN_GEOMETRIC_PRESENTATION_REPRESENTATION (  '', ( #413 ), #114 ) ;
#869 = DIRECTION ( 'NONE',  ( 1.000000000000000000, 0.000000000000000000, -0.000000000000000000 ) ) ;
#870 = COLOUR_RGB ( '',0.8039215686274510109, 0.8274509803921568096, 0.8470588235294117530 ) ;
#871 = SURFACE_SIDE_STYLE ('',( #332 ) ) ;
#872 = EDGE_CURVE ( 'NONE', #514, #671, #780, .T. ) ;
#873 = DIRECTION ( 'NONE',  ( 0.000000000000000000, -0.000000000000000000, 1.000000000000000000 ) ) ;
#874 = VECTOR ( 'NONE', #556, 1000.000000000000000 ) ;
#875 =( NAMED_UNIT ( * ) SI_UNIT ( $, .STERADIAN. ) SOLID_ANGLE_UNIT ( ) );
#876 = FILL_AREA_STYLE ('',( #267 ) ) ;
#877 = CARTESIAN_POINT ( 'NONE',  ( 19.39999999999999858, 9.700000000000001066, -43.79999999999999716 ) ) ;
#878 = EDGE_LOOP ( 'NONE', ( #740, #820, #364, #882 ) ) ;
#879 =( GEOMETRIC_REPRESENTATION_CONTEXT ( 3 ) GLOBAL_UNCERTAINTY_ASSIGNED_CONTEXT ( ( #393 ) ) GLOBAL_UNIT_ASSIGNED_CONTEXT ( ( #906, #901, #234 ) ) REPRESENTATION_CONTEXT ( 'NONE', 'WORKASPACE' ) );
#880 =( NAMED_UNIT ( * ) PLANE_ANGLE_UNIT ( ) SI_UNIT ( $, .RADIAN. ) );
#881 = LINE ( 'NONE', #939, #770 ) ;
#882 = ORIENTED_EDGE ( 'NONE', *, *, #802, .T. ) ;
#883 = ORIENTED_EDGE ( 'NONE', *, *, #912, .T. ) ;
#884 = UNCERTAINTY_MEASURE_WITH_UNIT (LENGTH_MEASURE( 1.000000000000000082E-05 ), #651, 'distance_accuracy_value', 'NONE');
#885 = CARTESIAN_POINT ( 'NONE',  ( 20.39999999999999858, 10.70000000000000107, -44.79999999999999716 ) ) ;
#886 = VERTEX_POINT ( 'NONE', #465 ) ;
#887 = VERTEX_POINT ( 'NONE', #547 ) ;
#888 = VECTOR ( 'NONE', #628, 1000.000000000000000 ) ;
#889 = PLANE ( 'NONE',  #577 ) ;
#890 = ORIENTED_EDGE ( 'NONE', *, *, #94, .F. ) ;
#891 = DIRECTION ( 'NONE',  ( 1.000000000000000000, 0.000000000000000000, 0.000000000000000000 ) ) ;
#892 = ADVANCED_FACE ( 'NONE', ( #615 ), #251, .T. ) ;
#893 = VERTEX_POINT ( 'NONE', #262 ) ;
#894 = AXIS2_PLACEMENT_3D ( 'NONE', #417, #199, #44 ) ;
#895 = PRESENTATION_STYLE_ASSIGNMENT (( #239 ) ) ;
#896 = ORIENTED_EDGE ( 'NONE', *, *, #313, .T. ) ;
#897 = ORIENTED_EDGE ( 'NONE', *, *, #775, .F. ) ;
#898 = VERTEX_POINT ( 'NONE', #860 ) ;
#899 = ADVANCED_FACE ( 'NONE', ( #478 ), #467, .F. ) ;
#900 =( GEOMETRIC_REPRESENTATION_CONTEXT ( 3 ) GLOBAL_UNCERTAINTY_ASSIGNED_CONTEXT ( ( #67 ) ) GLOBAL_UNIT_ASSIGNED_CONTEXT ( ( #368, #880, #512 ) ) REPRESENTATION_CONTEXT ( 'NONE', 'WORKASPACE' ) );
#901 =( NAMED_UNIT ( * ) PLANE_ANGLE_UNIT ( ) SI_UNIT ( $, .RADIAN. ) );
#902 = ORIENTED_EDGE ( 'NONE', *, *, #632, .F. ) ;
#903 = FILL_AREA_STYLE_COLOUR ( '', #553 ) ;
#904 = EDGE_LOOP ( 'NONE', ( #897, #152, #289, #359 ) ) ;
#905 = VECTOR ( 'NONE', #809, 1000.000000000000000 ) ;
#906 =( LENGTH_UNIT ( ) NAMED_UNIT ( * ) SI_UNIT ( .MILLI., .METRE. ) );
#907 = ORIENTED_EDGE ( 'NONE', *, *, #549, .F. ) ;
#908 = ADVANCED_FACE ( 'NONE', ( #98, #32 ), #404, .F. ) ;
#909 = PRODUCT_DEFINITION_CONTEXT ( 'detailed design', #711, 'design' ) ;
#910 = DIRECTION ( 'NONE',  ( 0.000000000000000000, 1.000000000000000000, 0.000000000000000000 ) ) ;
#911 = DIRECTION ( 'NONE',  ( 0.000000000000000000, -1.000000000000000000, 0.000000000000000000 ) ) ;
#912 = EDGE_CURVE ( 'NONE', #60, #449, #881, .T. ) ;
#913 = FILL_AREA_STYLE_COLOUR ( '', #402 ) ;
#914 = AXIS2_PLACEMENT_3D ( 'NONE', #419, #193, #704 ) ;
#915 =( LENGTH_UNIT ( ) NAMED_UNIT ( * ) SI_UNIT ( .MILLI., .METRE. ) );
#916 = SURFACE_STYLE_FILL_AREA ( #256 ) ;
#917 = DIRECTION ( 'NONE',  ( -0.000000000000000000, 1.000000000000000000, -0.000000000000000000 ) ) ;
#918 = CARTESIAN_POINT ( 'NONE',  ( -20.39999999999999858, -10.69999999999999751, -43.79999999999999716 ) ) ;
#919 = DIRECTION ( 'NONE',  ( 0.000000000000000000, -0.000000000000000000, 1.000000000000000000 ) ) ;
#920 = FILL_AREA_STYLE ('',( #537 ) ) ;
#921 = CARTESIAN_POINT ( 'NONE',  ( -19.40000000000000924, -9.700000000000002842, 2.428612866367529932E-14 ) ) ;
#922 = SURFACE_STYLE_FILL_AREA ( #242 ) ;
#923 = COLOUR_RGB ( '',0.8039215686274510109, 0.8274509803921568096, 0.8470588235294117530 ) ;
#924 = SURFACE_SIDE_STYLE ('',( #916 ) ) ;
#925 = DIRECTION ( 'NONE',  ( 0.000000000000000000, 0.000000000000000000, 1.000000000000000000 ) ) ;
#926 = LINE ( 'NONE', #692, #174 ) ;
#927 = DIRECTION ( 'NONE',  ( 0.000000000000000000, -0.000000000000000000, 1.000000000000000000 ) ) ;
#928 =( NAMED_UNIT ( * ) PLANE_ANGLE_UNIT ( ) SI_UNIT ( $, .RADIAN. ) );
#929 =( NAMED_UNIT ( * ) SI_UNIT ( $, .STERADIAN. ) SOLID_ANGLE_UNIT ( ) );
#930 = FACE_OUTER_BOUND ( 'NONE', #11, .T. ) ;
#931 = ADVANCED_FACE ( 'NONE', ( #136 ), #804, .F. ) ;
#932 = MECHANICAL_DESIGN_GEOMETRIC_PRESENTATION_REPRESENTATION (  '', ( #588 ), #772 ) ;
#933 = DIRECTION ( 'NONE',  ( 0.000000000000000000, 1.000000000000000000, 0.000000000000000000 ) ) ;
#934 = CARTESIAN_POINT ( 'NONE',  ( -20.39999999999999858, 10.70000000000000107, -43.79999999999999716 ) ) ;
#935 = VECTOR ( 'NONE', #607, 1000.000000000000114 ) ;
#936 = EDGE_CURVE ( 'NONE', #893, #63, #277, .T. ) ;
#937 = SURFACE_SIDE_STYLE ('',( #642 ) ) ;
#938 = VECTOR ( 'NONE', #341, 1000.000000000000000 ) ;
#939 = CARTESIAN_POINT ( 'NONE',  ( 0.000000000000000000, -10.69999999999999751, -44.79999999999999716 ) ) ;
#940 = DIRECTION ( 'NONE',  ( 0.000000000000000000, 0.000000000000000000, 1.000000000000000000 ) ) ;
#941 = PRESENTATION_LAYER_ASSIGNMENT (  '', '', ( #367 ) ) ;
#942 = PRESENTATION_LAYER_ASSIGNMENT (  '', '', ( #403 ) ) ;
#943 =( NAMED_UNIT ( * ) SI_UNIT ( $, .STERADIAN. ) SOLID_ANGLE_UNIT ( ) );
#944 = DIRECTION ( 'NONE',  ( 0.8445085784496776382, 0.000000000000000000, -0.5355420253583323964 ) ) ;
#945 = EDGE_CURVE ( 'NONE', #597, #825, #656, .T. ) ;
#946 =( NAMED_UNIT ( * ) PLANE_ANGLE_UNIT ( ) SI_UNIT ( $, .RADIAN. ) );
#947 = CARTESIAN_POINT ( 'NONE',  ( 19.40000000000000213, 9.700000000000001066, 6.938893903907228378E-15 ) ) ;
#948 = ORIENTED_EDGE ( 'NONE', *, *, #605, .F. ) ;
#949 = ORIENTED_EDGE ( 'NONE', *, *, #360, .T. ) ;
#950 = MECHANICAL_DESIGN_GEOMETRIC_PRESENTATION_REPRESENTATION (  '', ( #838 ), #879 ) ;
#951 = VECTOR ( 'NONE', #634, 1000.000000000000000 ) ;
#952 = PRESENTATION_STYLE_ASSIGNMENT (( #589 ) ) ;
#953 = SURFACE_STYLE_FILL_AREA ( #20 ) ;
#954 = VERTEX_POINT ( 'NONE', #129 ) ;
#955 = ORIENTED_EDGE ( 'NONE', *, *, #808, .T. ) ;
#956 = UNCERTAINTY_MEASURE_WITH_UNIT (LENGTH_MEASURE( 1.000000000000000082E-05 ), #95, 'distance_accuracy_value', 'NONE');
#957 = ORIENTED_EDGE ( 'NONE', *, *, #775, .T. ) ;
#958 = PRESENTATION_LAYER_ASSIGNMENT (  '', '', ( #156 ) ) ;
#959 = ORIENTED_EDGE ( 'NONE', *, *, #872, .F. ) ;
#960 = ORIENTED_EDGE ( 'NONE', *, *, #797, .F. ) ;
#961 = VECTOR ( 'NONE', #526, 1000.000000000000227 ) ;
ENDSEC;
END-ISO-10303-21;
